<ttFont>
          <CharString index="0">
            21 -22 -43 33 -62 hhcurveto
            -149 -96 -42 callgsubr
            102 -42 65 58 57 30 78 41 -41 callsubr
            hvcurveto
            -59 260 rmoveto
            0 -7 -65 -6 -66 vhcurveto
            -132 -41 -65 -37 -44 hhcurveto
            -54 -45 -26 callsubr
            33 120 133 50 35 -24 -15 19 -55 callsubr
            return
          </CharString>
          <CharString index="1">
            -68 33 -30 57 18 37 8 25 5 vhcurveto
            -103 callgsubr
            -20 0 41 return
          </CharString>
          <CharString index="2">
            20 21 6 12 12 hvcurveto
            95 97 11 9 11 vvcurveto
            9 -16 3 -31 -32 -20 -7 -19 -13 vhcurveto
            -57 -83 -12 -20 -9 vvcurveto
            -6 7 -3 15 vhcurveto
            return
          </CharString>
          <CharString index="3">
            -105 callsubr
            endchar
          </CharString>
          <CharString index="4">
            rmoveto
            -104 callsubr
          </CharString>
          <CharString index="5">
            -106 callsubr
            hvcurveto
            return
          </CharString>
          <CharString index="6">
            rmoveto
            15 8 3 6 9 -9 19 -49 84 hvcurveto
            19 -11 -19 7 -32 hhcurveto
            -31 -16 -3 -9 -1 hvcurveto
            -12 9 -8 85 -97 vhcurveto
            -12 10 21 -6 20 hhcurveto
            endchar
          </CharString>
          <CharString index="7">
            53 282 rmoveto
            -189 95 -99 179 -50 callsubr
            189 -96 97 -180 -263 -86 -214 -210 vhcurveto
            282 -212 -87 callsubr
            return
          </CharString>
          <CharString index="8">
            145 21 callgsubr
            -58 callgsubr
            -67 -642 0 -2 -2 vvcurveto
            -97 callgsubr
            return
          </CharString>
          <CharString index="9">
            45 209 rmoveto
            -140 71 -75 136 160 98 111 207 141 -70 76 -131 -47 callsubr
            vhcurveto
            212 -143 -61 callsubr
            85 40 -47 -100 -159 -59 -85 -107 hvcurveto
            return
          </CharString>
          <CharString index="10">
            503 rmoveto
            -65 callsubr
            -15 -140 -13 -126 vhcurveto
            -137 -43 -73 -33 -44 hhcurveto
            -51 -25 26 51 14 36 345 0 hvcurveto
            -96 callgsubr
            return
          </CharString>
          <CharString index="11">
            -31 callgsubr
            -99 callgsubr
            return
          </CharString>
          <CharString index="12">
            85 -19 callsubr
            -104 callgsubr
            hintmask 00101000
            return
          </CharString>
          <CharString index="13">
            hintmask 00000000
            hintmask 11101000
            -99 callsubr
            return
          </CharString>
          <CharString index="14">
            51 rlineto
            -83 callgsubr
            -4 hlineto
            -28 return
          </CharString>
          <CharString index="15">
            25 0 31 23 15 -5 7 -12 hvcurveto
            return
          </CharString>
          <CharString index="16">
            hlineto
            -92 callsubr
            return
          </CharString>
          <CharString index="17">
            -10 vlineto
            -106 callsubr
            return
          </CharString>
          <CharString index="18">
            -87 callgsubr
            -14 return
          </CharString>
          <CharString index="19">
            43 112 17 47 9 hvcurveto
            4 21 1 21 3 vvcurveto
            12 -3 0 -4 vhcurveto
            -14 -51 -49 -90 hhcurveto
            33 391 rmoveto
            57 33 return
          </CharString>
          <CharString index="20">
            rmoveto
            -125 -66 76 145 224 98 115 152 125 67 -74 -146 -221 -101 -119 -150 hvcurveto
            return
          </CharString>
          <CharString index="21">
            -82 callsubr
            39 366 0 hvcurveto
            return
          </CharString>
          <CharString index="22">
            481 494 rmoveto
            2 7 2 3 5 vvcurveto
            10 -12 6 -29 -21 -16 -4 -12 -6 vhcurveto
            -171 -361 -98 361 rlineto
            12 -3 -15 9 callsubr
            -15 -7 -10 -6 1 -4 127 -470 hvcurveto
            -87 -168 -25 -46 -7 vvcurveto
            -10 10 -5 21 vhcurveto
            15 hlineto
            24 18 6 15 7 hvcurveto
            return
          </CharString>
          <CharString index="23">
            -64 callgsubr
            8 hlineto
            26 14 8 14 2 hvcurveto
            return
          </CharString>
          <CharString index="24">
            -49 callgsubr
            10 vlineto
            -4 21 28 -3 37 hhcurveto
            136 134 44 139 51 -42 82 -126 return
          </CharString>
          <CharString index="25">
            -90 callsubr
            30 return
          </CharString>
          <CharString index="26">
            -43 callgsubr
            -20 -18 -3 -11 -8 vhcurveto
            -194 -247 -138 246 -31 callsubr
            -11 -51 callsubr
            return
          </CharString>
          <CharString index="27">
            rmoveto
            10 11 5 8 1 9 rrcurveto
            9 -3 8 -8 11 vhcurveto
            -113 156 rlineto
            8 -6 -7 4 -8 hhcurveto
            -13 -25 -17 -18 -5 2 -6 4 -6 hvcurveto
            96 -144 -127 -145 rlineto
            -5 -7 -5 -7 -6 vvcurveto
            -12 16 -20 16 8 7 5 8 8 vhcurveto
            return
          </CharString>
          <CharString index="28">
            -84 callgsubr
            -29 -33 callgsubr
            return
          </CharString>
          <CharString index="29">
            -84 callsubr
            69 660 rlineto
            -83 callgsubr
            -8 hlineto
            return
          </CharString>
          <CharString index="30">
            -24 -1 -34 -70 callsubr
            return
          </CharString>
          <CharString index="31">
            14 -8 -13 callsubr
            -14 -78 callgsubr
            return
          </CharString>
          <CharString index="32">
            -26 callgsubr
            hintmask 00100010
            -15 callsubr
            hintmask 00001010
            -82 callgsubr
            hintmask 00010010
            -30 callsubr
          </CharString>
          <CharString index="33">
            13 -5 8 -20 vhcurveto
            -6 hlineto
            -28 -7 -21 -29 -10 hvcurveto
            return
          </CharString>
          <CharString index="34">
            -28 callsubr
            -61 -63 -27 -74 -54 vhcurveto
            1 6 0 5 0 -60 callgsubr
            -47 -44 -391 0 vhcurveto
            -19 callgsubr
            26 14 8 14 2 hvcurveto
            0 16 146 13 129 vhcurveto
            129 43 72 32 44 -2 callgsubr
            hvcurveto
            return
          </CharString>
          <CharString index="35">
            hlineto
            -77 callsubr
            return
          </CharString>
          <CharString index="36">
            24 1 34 11 16 -3 11 -14 hvcurveto
            return
          </CharString>
          <CharString index="37">
            -11 -16 3 -11 14 hvcurveto
            return
          </CharString>
          <CharString index="38">
            27 14 13 19 2 hvcurveto
            7 66 14 43 33 51 rrcurveto
            5 8 3 4 6 vvcurveto
            11 -17 3 -11 -33 -78 -76 -120 -12 vhcurveto
            -17 11 -11 26 vhcurveto
            return
          </CharString>
          <CharString index="39">
            27 51 rmoveto
            -41 104 -16 36 115 74 72 105 vhcurveto
            167 -215 -44 96 vvcurveto
            41 34 26 61 -16 callgsubr
            -80 12 -44 -104 -78 -60 -90 hvcurveto
            -162 217 63 -126 vvcurveto
            -57 -47 -31 -60 vhcurveto
            -73 -36 39 -11 hhcurveto
            -7 -9 -14 -40 hvcurveto
            return
          </CharString>
          <CharString index="40">
            rmoveto
            -15 6 -9 15 -7 vhcurveto
            393 -174 rlineto
            -2 4 5 -1 5 hhcurveto
            15 10 14 26 19 -7 10 -13 6 hvcurveto
            -340 146 371 145 rlineto
            17 6 12 10 33 vvcurveto
            17 -5 9 -13 -5 -5 -1 -2 -6 vhcurveto
            -429 -174 rlineto
            -16 -7 -14 -11 -38 vvcurveto
            return
          </CharString>
          <CharString index="41">
            401 hmoveto
            -71 callsubr
            -275 hlineto
            332 389 rlineto
            2 2 2 5 7 vvcurveto
            19 -6 29 -9 vhcurveto
            -351 -72 callsubr
            256 hlineto
            -333 -389 rlineto
            -4 -4 -1 -7 -5 vvcurveto
            -20 10 -26 7 vhcurveto
            return
          </CharString>
          <CharString index="42">
            -96 callgsubr
            0 return
          </CharString>
          <CharString index="43">
            rlineto
            -2 -6 -2 -5 -2 -25 60 11 -38 vvcurveto
            -36 -35 -4 -25 vhcurveto
            -47 -27 25 -4 hhcurveto
            -5 -7 0 -33 -36 73 -5 24 hvcurveto
            endchar
          </CharString>
          <CharString index="44">
            -100 callgsubr
            endchar
          </CharString>
          <CharString index="45">
            -6 -16 -2 hvcurveto
            return
          </CharString>
          <CharString index="46">
            rmoveto
            -85 -41 47 99 150 57 95 110 return
          </CharString>
          <CharString index="47">
            -14 8 -8 return
          </CharString>
          <CharString index="48">
            40 381 rlineto
            7 -7 5 -10 vhcurveto
            -109 -29 rlineto
            -10 -2 -2 -4 -11 vvcurveto
            -11 2 -12 7 vhcurveto
            77 17 rlineto
            return
          </CharString>
          <CharString index="49">
            534 rmoveto
            -14 -1 -19 -7 -9 2 -6 8 hvcurveto
            20 hlineto
            47 32 -14 -48 -75 -55 -19 -37 hvcurveto
            -53 -31 22 -4 hhcurveto
            -4 -5 -3 -31 -26 81 -3 16 58 84 35 100 52 -31 31 -32 8 hvcurveto
            1 3 rlineto
            return
          </CharString>
          <CharString index="50">
            hlineto
            20 16 4 12 5 hvcurveto
            return
          </CharString>
          <CharString index="51">
            477 673 rlineto
            3 4 2 3 3 vvcurveto
            4 -4 2 -9 vhcurveto
            -13 hlineto
            -13 -12 -6 -10 -7 hvcurveto
            return
          </CharString>
          <CharString index="52">
            hvcurveto
            -3 -16 -3 -16 -2 -18 rrcurveto
            return
          </CharString>
          <CharString index="53">
            19 -21 704 -20 return
          </CharString>
          <CharString index="54">
            -48 callsubr
            endchar
          </CharString>
          <CharString index="55">
            rlineto
            3 4 1 4 2 vvcurveto
            5 -4 4 -9 vhcurveto
            -25 hlineto
            -14 -9 -7 -12 -8 hvcurveto
            return
          </CharString>
          <CharString index="56">
            hlineto
            -36 -11 -7 -12 -5 2 -5 4 -6 hvcurveto
            return
          </CharString>
          <CharString index="57">
            214 137 148 278 return
          </CharString>
          <CharString index="58">
            -12 3 16 -4 20 hhcurveto
            return
          </CharString>
          <CharString index="59">
            -19 -28 -235 -33 -89 callgsubr
            return
          </CharString>
          <CharString index="60">
            -188 -76 -154 -166 return
          </CharString>
          <CharString index="61">
            rmoveto
            -95 callgsubr
            return
          </CharString>
          <CharString index="62">
            229 72 hstem
            40 236 vstem
            65 301 rmoveto
            -77 callsubr
            194 -57 callgsubr
          </CharString>
          <CharString index="63">
            rmoveto
            -21 6 -9 21 vhcurveto
            413 -32 callgsubr
            -413 -6 callgsubr
          </CharString>
          <CharString index="64">
            12 -3 -16 -9 callgsubr
            return
          </CharString>
          <CharString index="65">
            -8 -14 -2 hvcurveto
            return
          </CharString>
          <CharString index="66">
            hvcurveto
            -90 callsubr
            return
          </CharString>
          <CharString index="67">
            10 callgsubr
            215 hlineto
            179 172 105 310 209 -121 76 -157 hvcurveto
            -215 hlineto
            -58 callgsubr
            return
          </CharString>
          <CharString index="68">
            -6 72 147 72 172 72 return
          </CharString>
          <CharString index="69">
            76 244 76 228 76 return
          </CharString>
          <CharString index="70">
            4 -5 callsubr
            -2 vhcurveto
            -9 -67 -48 -109 hhcurveto
            -139 -67 68 148 195 72 149 192 hvcurveto
            return
          </CharString>
          <CharString index="71">
            -25 0 -31 -23 -15 5 -7 12 hvcurveto
            return
          </CharString>
          <CharString index="72">
            49 -37 callgsubr
            return
          </CharString>
          <CharString index="73">
            -6 76 560 76 return
          </CharString>
          <CharString index="74">
            20 rmoveto
            -84 callsubr
            return
          </CharString>
          <CharString index="75">
            -52 -44 26 -75 hhcurveto
            -65 -62 -31 -21 -6 2 -5 3 -6 hvcurveto
            return
          </CharString>
          <CharString index="76">
            rlineto
            12 -7 -14 3 -21 hhcurveto
            return
          </CharString>
          <CharString index="77">
            38 36 -20 60 hhcurveto
            endchar
          </CharString>
          <CharString index="78">
            -210 rmoveto
            49 76 12 87 56 -57 6 -21 hvcurveto
            -4 hlineto
            return
          </CharString>
          <CharString index="79">
            21 29 254 17 vvcurveto
            74 -35 56 -97 return
          </CharString>
          <CharString index="80">
            -54 callsubr
            hstem
            return
          </CharString>
          <CharString index="81">
            35 114 120 return
          </CharString>
          <CharString index="82">
            40 108 67 96 67 hstem
            37 487 vstem
            79 338 rmoveto
            -23 callgsubr
            return
          </CharString>
          <CharString index="83">
            -21 -3 -26 -16 -14 6 -6 12 hvcurveto
            return
          </CharString>
          <CharString index="84">
            21 3 26 16 14 -6 6 -12 hvcurveto
            return
          </CharString>
          <CharString index="85">
            hlineto
            24 228 rlineto
            return
          </CharString>
          <CharString index="86">
            -557 rmoveto
            -16 callsubr
            25 hlineto
            14 9 7 12 8 hvcurveto
            return
          </CharString>
          <CharString index="87">
            192 -6 76 632 -20 return
          </CharString>
          <CharString index="88">
            hintmask 00000000
            hintmask 11010100
            return
          </CharString>
          <CharString index="89">
            147 hstemhm
            return
          </CharString>
          <CharString index="90">
            rmoveto
            26 250 rlineto
            142 hlineto
            55 69 -19 -84 -124 -97 -23 -39 hvcurveto
            endchar
          </CharString>
          <CharString index="91">
            -3 -4 -1 -4 -3 vvcurveto
            -4 4 -4 9 vhcurveto
            return
          </CharString>
          <CharString index="92">
            10 -14 20 -15 vhcurveto
            return
          </CharString>
          <CharString index="93">
            37 -6 73 436 22 return
          </CharString>
          <CharString index="94">
            -68 callgsubr
            -8 hlineto
            -28 return
          </CharString>
          <CharString index="95">
            -2 hvcurveto
            endchar
          </CharString>
          <CharString index="96">
            -238 -54 callsubr
            return
          </CharString>
          <CharString index="97">
            12 8 14 2 hvcurveto
            return
          </CharString>
          <CharString index="98">
            -35 callgsubr
            85 -18 callsubr
            45 470 return
          </CharString>
          <CharString index="99">
            rlineto
            14 -9 8 -29 vhcurveto
            -8 -54 callgsubr
            endchar
          </CharString>
          <CharString index="100">
            -33 callgsubr
            -7 -66 rlineto
            -48 callgsubr
            17 hlineto
            return
          </CharString>
          <CharString index="101">
            -11 callsubr
            103 -18 callsubr
            62 157 return
          </CharString>
          <CharString index="102">
            18 3 33 4 vvcurveto
            11 -5 0 return
          </CharString>
          <CharString index="103">
            -138 62 782 62 return
          </CharString>
          <CharString index="104">
            15 8 14 2 hvcurveto
            return
          </CharString>
          <CharString index="105">
            142 hstemhm
            return
          </CharString>
          <CharString index="106">
            rlineto
            171 hlineto
            22 1 32 10 15 -3 10 -13 hvcurveto
            return
          </CharString>
          <CharString index="107">
            -6 -5 -4 -5 -4 vvcurveto
            -5 2 -4 5 -5 vhcurveto
            return
          </CharString>
          <CharString index="108">
            87 hintmask 00000000
            return
          </CharString>
          <CharString index="109">
            89 55 89 return
          </CharString>
          <CharString index="110">
            -18 callgsubr
            26 14 return
          </CharString>
          <CharString index="111">
            25 210 143 -124 24 -81 hvcurveto
            return
          </CharString>
          <CharString index="112">
            -7 -7 -7 -31 hhcurveto
            -26 -22 11 46 20 return
          </CharString>
          <CharString index="113">
            hlineto
            -17 -7 -16 -31 -14 6 -6 11 hvcurveto
            return
          </CharString>
          <CharString index="114">
            -12 2 17 -4 20 hhcurveto
            return
          </CharString>
          <CharString index="115">
            rlineto
            -21 5 -9 22 vhcurveto
            return
          </CharString>
          <CharString index="116">
            -9 callgsubr
            -8 hlineto
            -30 return
          </CharString>
          <CharString index="117">
            85 hintmask 00000000
            return
          </CharString>
          <CharString index="118">
            -54 37 -7 hhcurveto
            -7 -8 -5 -54 -44 return
          </CharString>
          <CharString index="119">
            vvcurveto
            10 -13 6 -29 vhcurveto
            -6 hlineto
            -20 return
          </CharString>
          <CharString index="120">
            41 156 41 131 41 hstemhm
            return
          </CharString>
          <CharString index="121">
            -247 rmoveto
            -50 -11 35 38 hvcurveto
            return
          </CharString>
          <CharString index="122">
            hlineto
            -28 -14 -8 -14 return
          </CharString>
          <CharString index="123">
            0 76 548 76 return
          </CharString>
          <CharString index="124">
            531 224 hstem
            return
          </CharString>
          <CharString index="125">
            605 147 hstem
            return
          </CharString>
          <CharString index="126">
            61 393 hstem
            return
          </CharString>
          <CharString index="127">
            0 41 hvcurveto
            return
          </CharString>
        <CharString name=".notdef">
          480 endchar
        </CharString>
        <CharString name="A">
          -55 callgsubr
          hstem
          -23 588 vstem
          -105 callgsubr
          endchar
        </CharString>
        <CharString name="AE">
          395 0 76 102 75 67 76 228 76 hstem
          -47 906 vstem
          770 hmoveto
          -92 callsubr
          -248 hlineto
          -28 244 rlineto
          269 -91 callsubr
          -285 hlineto
          -26 228 rlineto
          366 -91 callsubr
          -450 hlineto
          -21 -13 -8 -19 -11 hvcurveto
          -388 -642 rlineto
          -4 -7 -2 -7 -4 vvcurveto
          -10 9 -5 29 vhcurveto
          5 hlineto
          18 16 5 11 7 hvcurveto
          97 164 rlineto
          295 hlineto
          16 -149 rlineto
          -20 2 10 -9 21 hhcurveto
          -298 253 rmoveto
          180 299 29 58 rlineto
          -58 vlineto
          30 -299 rlineto
          endchar
        </CharString>
        <CharString name="Aacute">
          -8 callgsubr
          -271 181 -98 callgsubr
          hintmask 00010100
          -97 531 -103 callsubr
        </CharString>
        <CharString name="Acircumflex">
          -55 callgsubr
          82 142 2 callgsubr
          -335 242 -98 callgsubr
          hintmask 00010100
          -176 542 -106 callgsubr
        </CharString>
        <CharString name="Adieresis">
          -55 callgsubr
          105 95 2 callgsubr
          -325 2 callsubr
          -98 callgsubr
          hintmask 00010110
          -29 555 rmoveto
          -14 8 -8 30 3 callsubr
          8 14 2 hvcurveto
          5 -93 callsubr
          -13 -8 -14 -1 hvcurveto
          -149 -51 -102 callgsubr
        </CharString>
        <CharString name="Agrave">
          -8 callgsubr
          -310 168 -98 callgsubr
          hintmask 00010100
          -13 531 -101 callsubr
        </CharString>
        <CharString name="Aring">
          -55 callgsubr
          62 35 99 35 2 callgsubr
          -293 35 99 35 hintmask 00000000
          hintmask 11100100
          -105 callgsubr
          hintmask 00011011
          -65 490 -73 callgsubr
        </CharString>
        <CharString name="Atilde">
          -55 callgsubr
          113 -12 callgsubr
          -23 588 -367 318 hintmask 00000000
          hintmask 11100010
          -105 callgsubr
          hintmask 00000000
          2 541 -26 callgsubr
          hintmask 00010001
          -15 callsubr
          hintmask 00000101
          -82 callgsubr
          hintmask 00001001
          -30 callsubr
        </CharString>
        <CharString name="B">
          73 0 76 246 76 226 76 hstemhm
          450 91 -88 92 hintmask 00000000
          255 hmoveto
          169 117 67 152 117 -127 31 0 hvcurveto
          1 4 rlineto
          hintmask 11110000
          68 18 62 80 75 vvcurveto
          93 -71 63 -139 vhcurveto
          -184 hlineto
          -58 callgsubr
          -67 -642 0 -2 -2 10 callgsubr
          100 398 rmoveto
          23 226 rlineto
          117 hlineto
          92 43 -30 -62 -73 -64 -61 -90 hvcurveto
          -155 -322 rmoveto
          26 246 rlineto
          134 hlineto
          hintmask 11101000
          96 50 -38 -64 -88 -62 -56 -93 hvcurveto
          endchar
        </CharString>
        <CharString name="C">
          99 -34 callsubr
          hstem
          38 90 vstem
          392 630 rmoveto
          -17 callgsubr
          -191 93 -89 195 81 104 20 38 8 hvcurveto
          -37 callsubr
          endchar
        </CharString>
        <CharString name="Ccedilla">
          99 -210 49 155 76 560 76 hstem
          38 90 229 72 vstem
          304 -29 callsubr
          18 45 72 4 75 20 7 32 rlinecurve
          -37 callsubr
          -17 callgsubr
          -190 91 -88 192 -2 hvcurveto
          -20 -50 -64 callsubr
        </CharString>
        <CharString name="D">
          175 16 callsubr
          hstem
          552 91 vstem
          117 670 rmoveto
          -67 -642 0 -2 -2 -40 callsubr
          26 -594 rmoveto
          57 548 rlineto
          150 hlineto
          114 88 -57 -166 -238 -129 -87 -130 hvcurveto
          endchar
        </CharString>
        <CharString name="Delta">
          188 0 68 642 -20 hstemhm
          0 639 hintmask 00000000
          605 hmoveto
          24 10 15 25 9 -2 8 -3 10 hvcurveto
          -198 620 rlineto
          16 -5 -10 7 -17 hhcurveto
          -26 hlineto
          -17 -13 -7 -16 -8 hvcurveto
          -329 -620 rlineto
          -8 -15 -3 -11 -16 vvcurveto
          -16 9 -9 17 vhcurveto
          59 68 rmoveto
          hintmask 11100000
          292 551 rlineto
          5 hlineto
          174 -551 rlineto
          endchar
        </CharString>
        <CharString name="E">
          -35 callgsubr
          hstem
          45 470 vstem
          -99 callsubr
          endchar
        </CharString>
        <CharString name="Eacute">
          -9 callsubr
          -243 181 -94 callsubr
          hintmask 00010100
          -204 85 -103 callsubr
        </CharString>
        <CharString name="Ecircumflex">
          -35 callgsubr
          64 -2 callsubr
          45 470 -307 242 -94 callsubr
          hintmask 00010100
          -283 96 -106 callgsubr
        </CharString>
        <CharString name="Edieresis">
          -35 callgsubr
          87 95 hstemhm
          45 470 -297 2 callsubr
          -94 callsubr
          hintmask 00010110
          -136 109 rmoveto
          -14 8 -8 30 3 callsubr
          8 14 2 hvcurveto
          5 -93 callsubr
          -13 -8 -14 -1 hvcurveto
          -149 -51 -102 callgsubr
        </CharString>
        <CharString name="Egrave">
          -9 callsubr
          -282 168 -94 callsubr
          hintmask 00010100
          -120 85 -101 callsubr
        </CharString>
        <CharString name="Eth">
          176 0 -38 callsubr
          hstem
          553 91 vstem
          24 396 rmoveto
          -36 callsubr
          65 hlineto
          -29 -286 -1 -9 -1 -40 callsubr
          -29 -274 rlineto
          55 -320 rmoveto
          25 244 rlineto
          111 -91 callsubr
          -111 -22 callsubr
          150 hlineto
          114 88 -57 -166 -238 -129 -87 -130 hvcurveto
          endchar
        </CharString>
        <CharString name="Euro">
          80 -6 72 170 67 93 67 171 72 hstem
          73 80 vstem
          325 66 rmoveto
          -91 -70 49 121 -10 hvcurveto
          255 5 callgsubr
          -285 hlineto
          28 5 36 4 29 vhcurveto
          264 5 callgsubr
          -278 hlineto
          124 36 74 47 105 86 40 -44 9 hhcurveto
          14 25 40 15 27 -77 34 -87 -153 -116 -80 -163 -45 hvcurveto
          -57 6 callsubr
          49 hlineto
          -6 -41 -1 -29 -2 -23 rrcurveto
          -49 6 callsubr
          55 hlineto
          -165 7 90 -77 165 hhcurveto
          64 92 20 38 8 hvcurveto
          3 -5 callsubr
          -1 vhcurveto
          -9 -56 -52 -99 hhcurveto
          endchar
        </CharString>
        <CharString name="F">
          -17 19 -21 322 76 228 76 hstem
          49 435 vstem
          49 20 rmoveto
          -64 callgsubr
          8 hlineto
          25 -3 callsubr
          31 300 rlineto
          251 -91 callsubr
          -251 -22 callsubr
          259 -91 callsubr
          -317 hlineto
          -58 callgsubr
          endchar
        </CharString>
        <CharString name="G">
          152 -6 76 215 76 269 76 hstem
          52 92 vstem
          494 285 rmoveto
          -22 -202 rlineto
          -7 -27 -51 -6 -52 hhcurveto
          -152 -46 95 123 213 84 129 176 hvcurveto
          102 45 -4 callgsubr
          -87 34 -97 -222 -144 -134 -297 -191 97 -90 179 114 111 16 56 6 hvcurveto
          28 267 0 2 2 vvcurveto
          16 -8 8 -19 vhcurveto
          -176 hlineto
          -36 callsubr
          endchar
        </CharString>
        <CharString name="H">
          213 19 -21 323 76 305 -20 hstem
          62 607 vstem
          62 -33 callsubr
          31 301 rlineto
          362 hlineto
          -31 -301 rlineto
          -78 callsubr
          -29 -33 callgsubr
          -30 -283 rlineto
          -362 hlineto
          30 283 -8 callsubr
        </CharString>
        <CharString name="I">
          -11 callsubr
          hstem
          62 157 vstem
          -81 callgsubr
          endchar
        </CharString>
        <CharString name="Iacute">
          -6 callsubr
          -91 181 -77 callgsubr
          hintmask 00101000
          19 105 -103 callsubr
        </CharString>
        <CharString name="Icircumflex">
          -11 callsubr
          82 -2 callsubr
          62 157 -155 242 -77 callgsubr
          hintmask 00101000
          -60 116 -106 callgsubr
        </CharString>
        <CharString name="Idieresis">
          -11 callsubr
          105 95 hstemhm
          62 157 -145 2 callsubr
          -77 callgsubr
          hintmask 00101100
          87 129 rmoveto
          -14 8 -8 30 3 callsubr
          8 14 2 hvcurveto
          5 -93 callsubr
          -13 -8 -14 -1 hvcurveto
          -149 -51 -102 callgsubr
        </CharString>
        <CharString name="Igrave">
          -6 callsubr
          -130 168 -77 callgsubr
          hintmask 00101000
          103 105 -101 callsubr
        </CharString>
        <CharString name="J">
          -118 -6 82 626 -20 hstem
          -11 365 vstem
          215 201 rmoveto
          -86 -9 -43 -39 -93 -40 -17 9 -9 hhcurveto
          -9 -6 -15 -44 -25 45 -7 43 147 67 85 126 13 hvcurveto
          50 475 rlineto
          -83 callgsubr
          -8 hlineto
          -29 -33 callgsubr
          endchar
        </CharString>
        <CharString name="K">
          56 -27 callsubr
          44 505 vstem
          44 20 rmoveto
          -64 callgsubr
          8 hlineto
          25 -3 callsubr
          33 313 rlineto
          4 hlineto
          252 -322 rlineto
          -11 9 16 -2 29 hhcurveto
          7 hlineto
          31 13 3 11 1 hvcurveto
          4 -1 4 -6 8 vhcurveto
          -261 332 278 309 rlineto
          8 8 4 7 6 vvcurveto
          6 -11 6 -23 vhcurveto
          -10 hlineto
          -22 -23 -3 -11 -10 hvcurveto
          -277 -314 rlineto
          -4 hlineto
          32 306 -8 callsubr
        </CharString>
        <CharString name="L">
          -36 0 76 626 -20 hstem
          50 401 vstem
          426 hmoveto
          -92 callsubr
          -291 hlineto
          63 604 rlineto
          14 -9 8 -29 vhcurveto
          -8 -54 callgsubr
          -68 -650 8 callsubr
          endchar
        </CharString>
        <CharString name="Lslash">
          -34 0 76 626 -20 hstem
          -5 457 vstem
          427 hmoveto
          -92 callsubr
          -291 hlineto
          34 325 114 64 -11 callgsubr
          -114 -64 24 233 rlineto
          14 -9 8 -29 vhcurveto
          -8 -54 callgsubr
          -30 -286 -72 -40 rlineto
          -12 7 callgsubr
          4 2 2 4 vhcurveto
          72 40 -33 -318 8 callsubr
          endchar
        </CharString>
        <CharString name="M">
          323 -27 callsubr
          54 732 vstem
          715 702 rmoveto
          -24 -12 -7 -11 -7 hvcurveto
          -224 -334 -32 -57 -20 63 -154 328 rlineto
          11 -5 -12 7 -24 hhcurveto
          -36 -54 callgsubr
          -69 -660 rlineto
          -64 callgsubr
          7 hlineto
          26 14 8 14 2 hvcurveto
          57 544 167 -356 rlineto
          -9 4 6 -4 10 hhcurveto
          40 hlineto
          11 7 4 9 6 hvcurveto
          237 350 -56 -538 rlineto
          -64 callgsubr
          7 hlineto
          26 14 8 14 2 hvcurveto
          69 660 rlineto
          -83 callgsubr
          endchar
        </CharString>
        <CharString name="N">
          199 -27 callsubr
          52 614 vstem
          52 20 rmoveto
          -64 callgsubr
          7 hlineto
          26 14 8 14 2 hvcurveto
          57 541 21 -51 284 -498 rlineto
          -9 5 10 -5 19 hhcurveto
          20 hlineto
          26 14 8 14 2 hvcurveto
          69 660 rlineto
          -83 callgsubr
          -7 -54 callgsubr
          -56 -535 -24 56 -275 482 rlineto
          14 -8 -10 5 -22 hhcurveto
          -21 -54 callgsubr
          endchar
        </CharString>
        <CharString name="Ntilde">
          199 -54 callsubr
          113 -12 callgsubr
          52 614 -411 318 hintmask 00000000
          hintmask 11000100
          52 20 rmoveto
          -64 callgsubr
          7 hlineto
          26 14 8 14 2 hvcurveto
          57 541 21 -51 284 -498 rlineto
          -9 5 10 -5 19 hhcurveto
          20 hlineto
          26 14 8 14 2 hvcurveto
          69 660 rlineto
          -83 callgsubr
          -7 -54 callgsubr
          -56 -535 -24 56 -275 482 rlineto
          14 -8 -10 5 -22 hhcurveto
          -21 -54 callgsubr
          hintmask 00000000
          351 115 -75 callsubr
        </CharString>
        <CharString name="O">
          -38 callgsubr
          hstem
          53 91 442 92 vstem
          -100 callsubr
          endchar
        </CharString>
        <CharString name="OE">
          501 -6 76 -70 -38 callsubr
          -70 76 hstemhm
          53 91 442 91 hintmask 00000000
          hintmask 01110110
          651 21 callgsubr
          -58 callgsubr
          -5 -41 rlineto
          hintmask 10101110
          49 -47 -73 28 -91 hhcurveto
          -215 -134 -144 -280 -189 95 -99 179 92 80 28 51 57 hvcurveto
          -5 -43 0 -5 -1 vvcurveto
          hintmask 01110110
          -97 callgsubr
          hintmask 10101110
          -669 -630 -87 callsubr
          endchar
        </CharString>
        <CharString name="Oacute">
          -38 callgsubr
          79 -18 callsubr
          53 91 213 181 48 -85 callgsubr
          44 715 -103 callsubr
        </CharString>
        <CharString name="Ocircumflex">
          -38 callgsubr
          58 -2 callsubr
          53 91 149 242 51 -85 callgsubr
          -35 726 -106 callgsubr
        </CharString>
        <CharString name="Odieresis">
          -38 callgsubr
          81 95 hstemhm
          53 91 159 2 callsubr
          50 92 hintmask 00000000
          hintmask 11010010
          -100 callsubr
          hintmask 00101100
          112 739 rmoveto
          -14 8 -8 30 3 callsubr
          8 14 2 hvcurveto
          5 -93 callsubr
          -13 -8 -14 -1 hvcurveto
          -149 -51 -102 callgsubr
        </CharString>
        <CharString name="Ograve">
          -38 callgsubr
          79 -18 callsubr
          53 91 174 168 100 -85 callgsubr
          128 715 -101 callsubr
        </CharString>
        <CharString name="Omega">
          211 0 68 562 76 hstem
          52 91 442 92 vstem
          377 19 rmoveto
          -13 5 -6 12 vhcurveto
          237 hlineto
          24 1 32 16 14 -6 6 -11 hvcurveto
          -38 hlineto
          -60 -4 rlineto
          86 71 50 123 164 vvcurveto
          188 -95 96 -180 -212 -138 -143 -277 -97 25 -74 50 -51 vhcurveto
          -58 4 rlineto
          -38 hlineto
          -23 -2 -33 -16 -13 5 -6 12 hvcurveto
          241 hlineto
          10 4 4 9 3 hvcurveto
          3 8 1 14 8 vvcurveto
          5 -2 3 -4 1 vhcurveto
          -91 24 -45 72 131 vvcurveto
          232 95 119 156 125 66 -74 -144 -214 -78 -117 -119 -29 vhcurveto
          -11 -3 0 -22 -8 vvcurveto
          endchar
        </CharString>
        <CharString name="Oslash">
          -38 callgsubr
          hstemhm
          53 91 442 92 hintmask 00000000
          53 282 rmoveto
          -67 12 -55 23 -44 vhcurveto
          hintmask 11110000
          -81 -81 rlineto
          -5 -5 -3 -5 -4 vvcurveto
          -5 3 -4 5 -5 vhcurveto
          -3 3 -14 callgsubr
          75 75 rlineto
          -60 46 73 -30 100 hhcurveto
          -50 callsubr
          77 -16 61 -31 46 hvcurveto
          65 65 rlineto
          5 5 2 4 5 vvcurveto
          4 -2 4 -5 5 vhcurveto
          5 -5 -4 1 -5 callgsubr
          -62 -61 rlineto
          48 -46 -69 24 -90 hhcurveto
          -263 -86 -214 -210 hvcurveto
          91 9 rmoveto
          224 98 115 152 66 49 -21 -41 33 vhcurveto
          -383 -381 rlineto
          -10 29 -5 35 40 vvcurveto
          191 -221 rmoveto
          -75 -54 27 53 -31 hvcurveto
          387 386 rlineto
          16 -33 8 -43 -50 vvcurveto
          -221 -101 -119 -150 vhcurveto
          endchar
        </CharString>
        <CharString name="Otilde">
          -38 callgsubr
          89 -12 callgsubr
          53 91 117 318 7 92 hintmask 00000000
          hintmask 11000101
          -100 callsubr
          hintmask 00000000
          143 725 -75 callsubr
        </CharString>
        <CharString name="P">
          50 19 -21 300 76 250 76 hstem
          467 92 vstem
          50 -33 callsubr
          29 278 rlineto
          155 hlineto
          52 185 4 callsubr
          -203 hlineto
          -58 callgsubr
          57 -296 -17 callsubr
        </CharString>
        <CharString name="Q">
          211 630 76 hstem
          60 92 441 92 vstem
          217 6 rmoveto
          -12 31 364 -151 17 hhcurveto
          11 10 10 65 11 -2 5 -10 4 hvcurveto
          -194 63 rlineto
          4 vlineto
          146 38 95 144 230 vvcurveto
          189 -95 100 -180 -214 -136 -149 -279 -140 52 -91 105 -41 vhcurveto
          126 61 rmoveto
          -123 -68 78 145 219 102 121 148 124 67 -80 -146 -217 -101 -120 -149 hvcurveto
          endchar
        </CharString>
        <CharString name="R">
          90 19 -21 310 76 240 76 hstem
          450 93 vstem
          50 20 rmoveto
          -64 callgsubr
          8 hlineto
          25 -3 callsubr
          30 288 rlineto
          90 hlineto
          78 39 -20 -78 22 hvcurveto
          55 -196 rlineto
          -49 callsubr
          10 hlineto
          33 11 7 12 3 -1 4 -1 4 hvcurveto
          -58 197 -20 66 -18 45 -38 14 rlinecurve
          4 vlineto
          79 30 55 64 100 vvcurveto
          108 -79 44 -145 vhcurveto
          -168 hlineto
          -58 callgsubr
          58 -286 rmoveto
          25 240 rlineto
          125 hlineto
          75 49 -31 -68 -74 -62 -67 -80 hvcurveto
          endchar
        </CharString>
        <CharString name="S">
          -20 -34 callsubr
          hstem
          67 90 202 91 vstem
          -71 callgsubr
          endchar
        </CharString>
        <CharString name="Scaron">
          -20 -34 callsubr
          56 -2 callsubr
          67 90 40 242 -80 91 -19 callsubr
          -71 callgsubr
          hintmask 00101000
          -51 154 -93 callgsubr
        </CharString>
        <CharString name="T">
          29 19 -21 626 76 hstem
          48 514 vstem
          259 624 rmoveto
          -63 -604 rlineto
          -64 callgsubr
          8 hlineto
          25 -3 callsubr
          63 604 rlineto
          190 -91 callsubr
          -472 hlineto
          -36 callsubr
          endchar
        </CharString>
        <CharString name="Thorn">
          47 19 -21 178 76 250 76 124 -20 hstem
          454 92 vstem
          50 -33 callsubr
          16 156 rlineto
          155 hlineto
          67 170 4 callsubr
          -145 hlineto
          11 102 rlineto
          14 -9 -13 callsubr
          -12 -42 callsubr
          43 -428 -17 callsubr
        </CharString>
        <CharString name="U">
          -20 callsubr
          hstem
          64 89 vstem
          -99 callgsubr
          endchar
        </CharString>
        <CharString name="Uacute">
          0 callgsubr
          192 181 -96 callsubr
          hintmask 00101000
          253 105 -103 callsubr
        </CharString>
        <CharString name="Ucircumflex">
          -20 callsubr
          82 -2 callsubr
          64 89 128 242 -96 callsubr
          hintmask 00101000
          174 116 -106 callgsubr
        </CharString>
        <CharString name="Udieresis">
          -20 callsubr
          105 95 hstemhm
          64 89 138 2 callsubr
          -96 callsubr
          hintmask 00101100
          321 129 rmoveto
          -14 8 -8 30 3 callsubr
          8 14 2 hvcurveto
          5 -93 callsubr
          -13 -8 -14 -1 hvcurveto
          -149 -51 -102 callgsubr
        </CharString>
        <CharString name="Ugrave">
          0 callgsubr
          153 168 -96 callsubr
          hintmask 00101000
          337 105 -101 callsubr
        </CharString>
        <CharString name="V">
          97 -27 callsubr
          55 576 vstem
          148 686 rmoveto
          -43 callsubr
          -9 hlineto
          -34 -11 -9 -12 -3 1 -3 161 -661 hvcurveto
          -49 callsubr
          31 -57 callsubr
          298 657 rlineto
          3 6 2 5 4 12 callsubr
          -16 -4 -12 -5 hvcurveto
          -241 -533 -19 -53 -5 52 rlineto
          endchar
        </CharString>
        <CharString name="W">
          362 -2 103 -82 -21 704 -20 hstemhm
          49 853 hintmask 00000000
          655 14 rmoveto
          245 663 2 7 2 12 callsubr
          -17 -4 -12 -4 hvcurveto
          hintmask 01110000
          -207 -585 rlineto
          0 -2 57 -5 35 vhcurveto
          -72 492 rlineto
          13 -2 -16 -9 callgsubr
          -16 hlineto
          -25 -11 -4 -13 -4 hvcurveto
          -207 -584 rlineto
          3 -4 63 -4 27 vhcurveto
          -76 492 12 callgsubr
          -23 -22 -2 -18 hvcurveto
          105 -668 rlineto
          7 callsubr
          41 hlineto
          18 18 4 12 5 hvcurveto
          151 407 35 130 7 -130 66 -407 rlineto
          7 callsubr
          41 hlineto
          hintmask 10110000
          20 17 4 12 4 hvcurveto
          endchar
        </CharString>
        <CharString name="X">
          91 -27 callsubr
          -17 617 vstem
          449 13 rmoveto
          -12 7 14 -3 21 hhcurveto
          16 hlineto
          36 11 7 12 4 -3 6 -3 6 hvcurveto
          -189 337 231 297 rlineto
          -43 callgsubr
          vhcurveto
          -6 hlineto
          -18 -18 -3 -11 -8 hvcurveto
          -190 -242 -135 241 -31 callsubr
          -14 -51 callsubr
          168 -302 -258 -332 rlineto
          -6 -7 -4 -7 -5 vvcurveto
          -11 13 -5 31 vhcurveto
          8 hlineto
          18 18 3 11 8 hvcurveto
          215 276 rlineto
          endchar
        </CharString>
        <CharString name="Y">
          39 -27 callsubr
          53 523 vstem
          566 667 rmoveto
          -81 callsubr
          176 -308 -35 -339 -51 callgsubr
          35 336 rlineto
          endchar
        </CharString>
        <CharString name="Yacute">
          39 -54 callsubr
          103 -18 callsubr
          53 523 -305 181 -31 callgsubr
          566 667 rmoveto
          -81 callsubr
          176 -308 -35 -339 -51 callgsubr
          35 336 rlineto
          hintmask 00101000
          -30 429 -103 callsubr
        </CharString>
        <CharString name="Ydieresis">
          39 -54 callsubr
          105 95 hstemhm
          53 523 -359 2 callsubr
          -31 callgsubr
          566 667 rmoveto
          -81 callsubr
          176 -308 -35 -339 -51 callgsubr
          35 336 rlineto
          hintmask 00101100
          38 453 rmoveto
          -14 8 -8 30 3 callsubr
          8 14 2 hvcurveto
          5 -93 callsubr
          -13 -8 -14 -1 hvcurveto
          -149 -51 -102 callgsubr
        </CharString>
        <CharString name="Z">
          96 16 callsubr
          hstem
          6 596 vstem
          -66 callgsubr
          endchar
        </CharString>
        <CharString name="Zcaron">
          96 16 callsubr
          63 -2 callsubr
          6 596 -345 242 -31 callgsubr
          -66 callgsubr
          hintmask 00101000
          283 785 -93 callgsubr
        </CharString>
        <CharString name="a">
          -107 callgsubr
          endchar
        </CharString>
        <CharString name="aacute">
          -107 callgsubr
          hintmask 11011000
          -131 238 -103 callsubr
        </CharString>
        <CharString name="acircumflex">
          -107 callgsubr
          hintmask 11011000
          -210 249 -106 callgsubr
        </CharString>
        <CharString name="acute">
          18 callsubr
          67 181 vstem
          89 605 -103 callsubr
        </CharString>
        <CharString name="adieresis">
          -107 callgsubr
          hintmask 11011000
          -63 262 rmoveto
          -14 8 -8 30 3 callsubr
          8 14 2 hvcurveto
          5 -93 callsubr
          -13 -8 -14 -1 hvcurveto
          -149 -51 -102 callgsubr
        </CharString>
        <CharString name="ae">
          309 -6 72 160 72 159 72 hstem
          29 91 211 19 callgsubr
          564 -49 callgsubr
          16 86 vlineto
          136 134 39 131 55 -42 78 -126 -70 -54 -19 -32 -42 hvcurveto
          33 -30 -52 18 -68 hhcurveto
          -101 -94 -39 -26 -12 16 -37 14 hvcurveto
          10 59 42 91 hhcurveto
          56 30 -18 -25 12 hvcurveto
          -21 -34 -15 -40 -8 -44 rrcurveto
          -146 -4 -164 -21 -148 vvcurveto
          -89 66 -40 90 68 77 28 36 45 vhcurveto
          -53 46 73 -11 63 hhcurveto
          -88 callsubr
          -27 -42 -86 -164 -4 -29 hvcurveto
          -69 hlineto
          87 16 46 72 110 hhcurveto
          -266 -256 rmoveto
          -33 4 -27 8 -24 vhcurveto
          -28 -41 -52 -22 -53 hhcurveto
          -53 -24 22 43 89 145 5 66 hvcurveto
          endchar
        </CharString>
        <CharString name="agrave">
          -107 callgsubr
          hintmask 11011000
          -47 238 -101 callsubr
        </CharString>
        <CharString name="ampersand">
          104 -6 72 270 72 226 72 hstemhm
          32 88 -29 83 210 85 -49 89 hintmask 00000000
          414 408 rmoveto
          -117 hlineto
          hintmask 11110010
          -90 -33 61 49 33 17 83 115 hvcurveto
          36 13 -6 9 hhcurveto
          11 16 36 15 25 -53 2 -26 -119 -102 -61 -125 -64 39 -45 50 -20 hvcurveto
          -1 -4 rlineto
          hintmask 11101010
          -66 -17 -81 -73 -122 vvcurveto
          -133 110 -48 93 73 57 22 20 35 vhcurveto
          -36 23 42 -6 31 hhcurveto
          54 19 27 43 7 -4 2 -3 hvcurveto
          5 callsubr
          21 193 0 hvcurveto
          hintmask 11110100
          -34 callgsubr
          hintmask 11110010
          -42 -410 rmoveto
          -19 -33 -51 -18 -49 hhcurveto
          -56 -75 25 93 118 73 34 92 hvcurveto
          121 hlineto
          0 -22 -202 -31 vvcurveto
          endchar
        </CharString>
        <CharString name="approxequal">
          27 99 74 -48 74 64 74 -48 74 hstemhm
          70 406 hintmask 00000000
          92 294 -15 callgsubr
          hintmask 10011000
          -46 callgsubr
          hintmask 10011000
          -17 -164 -15 callgsubr
          hintmask 01101000
          -46 callgsubr
          endchar
        </CharString>
        <CharString name="aring">
          -107 callgsubr
          hintmask 11011000
          -99 197 -73 callgsubr
        </CharString>
        <CharString name="arrowdown">
          9 21 -21 hstem
          3 534 vstem
          194 22 rmoveto
          -14 7 -8 21 vhcurveto
          10 hlineto
          23 8 8 14 1 hvcurveto
          60 564 186 -213 rlineto
          -6 6 4 -4 3 hhcurveto
          5 2 7 12 1 hvcurveto
          6 55 rlineto
          14 0 10 -9 10 vhcurveto
          -209 234 rlineto
          5 -4 -4 2 -7 hhcurveto
          -4 hlineto
          -7 -4 -2 -5 -6 hvcurveto
          -256 -233 -11 -10 -5 -10 -2 -14 rlinecurve
          -6 -55 rlineto
          -12 0 -7 5 3 6 4 6 6 vhcurveto
          231 212 rlineto
          endchar
        </CharString>
        <CharString name="arrowleft">
          230 22 -21 230 70 hstem
          0 751 vstem
          129 301 rmoveto
          234 208 7 6 4 5 1 3 rlinecurve
          5 -7 2 -12 vhcurveto
          -55 hlineto
          -14 -10 -4 -10 -11 hvcurveto
          -258 -232 rlineto
          -5 -5 -3 -4 -7 vvcurveto
          -4 vlineto
          -7 0 -4 5 -5 vhcurveto
          209 -233 rlineto
          -10 9 10 -4 14 hhcurveto
          55 hlineto
          13 6 2 6 3 -4 5 -4 5 hvcurveto
          -191 209 rlineto
          603 hlineto
          14 12 9 31 21 -4 9 -15 hvcurveto
          endchar
        </CharString>
        <CharString name="arrowright">
          230 22 -21 229 70 hstem
          -1 751 vstem
          621 230 rmoveto
          -234 -208 -7 -6 -4 -5 -1 -3 rlinecurve
          -5 7 -2 12 vhcurveto
          55 hlineto
          14 10 4 10 11 hvcurveto
          258 232 rlineto
          5 5 3 4 7 vvcurveto
          4 vlineto
          7 0 4 -5 5 vhcurveto
          -209 233 rlineto
          10 -9 -10 4 -14 hhcurveto
          -55 hlineto
          -13 -6 -2 -6 -3 4 -5 4 -5 hvcurveto
          191 -209 rlineto
          -603 hlineto
          -14 -12 -9 -31 -21 4 -9 15 hvcurveto
          endchar
        </CharString>
        <CharString name="arrowup">
          9 21 -21 hstem
          -9 534 vstem
          334 690 rmoveto
          14 -7 8 -21 vhcurveto
          -10 hlineto
          -23 -8 -78 callgsubr
          -60 -564 -186 213 rlineto
          6 -6 -4 4 -3 hhcurveto
          -5 -2 -7 -12 -1 hvcurveto
          -6 -55 rlineto
          -14 0 -10 9 -10 vhcurveto
          209 -234 rlineto
          -5 4 4 -2 7 hhcurveto
          4 hlineto
          7 4 2 5 6 hvcurveto
          256 233 11 10 5 10 2 14 rlinecurve
          6 55 rlineto
          12 0 7 -5 -3 -6 -4 -6 -6 vhcurveto
          -231 -212 rlineto
          endchar
        </CharString>
        <CharString name="asciicircum">
          -70 320 364 hstem
          36 344 vstem
          40 355 rmoveto
          -3 -7 -1 -5 -6 vvcurveto
          -11 8 -6 16 -18 callgsubr
          16 12 7 16 9 hvcurveto
          134 261 79 -261 rlineto
          -16 5 9 -7 18 hhcurveto
          4 hlineto
          17 11 8 13 2 hvcurveto
          4 0 5 -2 5 vhcurveto
          -92 309 rlineto
          16 -6 -9 4 -17 hhcurveto
          -20 hlineto
          -18 -10 -5 -15 -8 hvcurveto
          endchar
        </CharString>
        <CharString name="asciitilde">
          27 215 74 -48 74 hstemhm
          79 389 hintmask 00000000
          84 246 -15 callgsubr
          hintmask 01100000
          -45 callgsubr
          hintmask 10100000
          -32 callsubr
          endchar
        </CharString>
        <CharString name="asterisk">
          -147 414 295 hstem
          168 45 vstem
          65 419 rmoveto
          -4 4 4 -1 4 hhcurveto
          5 5 3 6 6 hvcurveto
          84 101 62 -101 rlineto
          -6 3 5 -3 6 hhcurveto
          10 14 13 9 3 -2 4 -2 4 hvcurveto
          -61 99 102 32 rlineto
          12 3 4 6 9 vvcurveto
          14 -9 7 -7 -3 -3 0 -1 -3 vhcurveto
          -102 -32 11 105 rlineto
          20 callgsubr
          -14 -7 -6 -14 -1 vhcurveto
          -11 -105 -96 32 rlineto
          1 -3 -3 0 -3 hhcurveto
          -9 -11 -10 -16 -6 4 -4 8 -3 hvcurveto
          95 -32 -82 -99 rlineto
          -5 -6 -1 -5 -4 vvcurveto
          -5 3 -5 5 -3 vhcurveto
          endchar
        </CharString>
        <CharString name="at">
          454 -126 44 136 53 -53 61 328 62 -24 21 159 44 hstemhm
          84 54 140 73 207 72 183 54 hintmask 0000000000000000
          410 -82 rmoveto
          -162 -110 129 190 238 174 186 222 167 112 -112 -169 -145 -69 -128 -74 -10 -30 0 42 hvcurveto
          hintmask 1101011111000000
          24 33 308 0 vhcurveto
          13 -6 8 -16 vhcurveto
          -6 hlineto
          -25 1 -15 -29 -11 hvcurveto
          hintmask 1100111111000000
          18 -18 -38 29 -55 hhcurveto
          -128 -83 -112 -157 -147 88 -35 57 51 49 26 64 35 hvcurveto
          -7 vlineto
          hintmask 1011011111000000
          -44 2 34 -39 63 hhcurveto
          124 86 144 182 196 -132 129 -201 -253 -197 -205 -263 -216 132 -147 194 67 79 15 33 8 hvcurveto
          2 8 1 15 0 vvcurveto
          3 -1 3 -3 vhcurveto
          -13 -50 -33 -90 hhcurveto
          hintmask 1101011111000000
          29 197 rmoveto
          -48 -40 30 96 101 29 101 115 44 31 -20 -14 17 hvcurveto
          -7 -23 -7 -79 -5 -51 rrcurveto
          -110 -36 -55 -31 -38 hhcurveto
          endchar
        </CharString>
        <CharString name="atilde">
          -50 callgsubr
          110 73 13 -20 hstemhm
          40 87 13 318 -95 10 callsubr
          448 107 rmoveto
          hintmask 11000101
          -76 callgsubr
          hintmask 10100101
          -107 callsubr
          hintmask 11000101
          -32 248 -26 callgsubr
          hintmask 00000000
          -15 callsubr
          hintmask 00010010
          -82 callgsubr
          hintmask 00001010
          -30 callsubr
        </CharString>
        <CharString name="b">
          49 19 -21 458 73 hstemhm
          424 1 callsubr
          38 20 rmoveto
          -14 5 -8 20 vhcurveto
          8 hlineto
          22 13 25 25 7 hvcurveto
          hintmask 11100000
          -22 23 46 -32 64 hhcurveto
          161 104 136 186 174 -114 39 -73 -59 -58 -30 -74 -42 hvcurveto
          32 305 rlineto
          -96 callgsubr
          24 -574 rmoveto
          14 134 rlineto
          130 42 67 36 45 hhcurveto
          66 53 -32 -114 -120 -37 -123 -149 -53 -37 23 16 -19 hvcurveto
          3 15 3 17 2 18 rrcurveto
          endchar
        </CharString>
        <CharString name="backslash">
          -159 703 -20 hstem
          35 291 vstem
          260 -1 rmoveto
          -13 4 8 -8 14 hhcurveto
          25 hlineto
          10 5 5 8 2 0 3 -1 3 hvcurveto
          -223 683 rlineto
          13 -4 -8 8 -14 hhcurveto
          -25 hlineto
          -11 -5 -6 -7 -2 1 -3 1 -3 hvcurveto
          endchar
        </CharString>
        <CharString name="bar">
          -270 -140 910 hstem
          96 58 vstem
          96 -118 rmoveto
          -14 7 -8 17 vhcurveto
          10 hlineto
          17 7 8 14 hvcurveto
          866 vlineto
          14 -7 8 -17 vhcurveto
          -10 hlineto
          -17 -7 -8 -14 hvcurveto
          endchar
        </CharString>
        <CharString name="braceleft">
          -246 -4 callsubr
          hstemhm
          59 72 -50 71 hintmask 00000000
          265 706 rmoveto
          -23 callsubr
          -50 hlineto
          -33 -47 -21 -95 -10 hvcurveto
          -18 -167 -7 -67 -11 -42 -46 -20 rlinecurve
          -17 -7 -11 -9 -1 -18 -1 -19 rcurveline
          -16 9 -8 12 -5 vhcurveto
          32 -14 9 -29 -40 vvcurveto
          hintmask 11010000
          -30 -22 -162 -45 vvcurveto
          -76 43 -16 24 vhcurveto
          50 hlineto
          -23 callsubr
          -22 hlineto
          -22 -7 14 24 hvcurveto
          hintmask 11100000
          51 21 131 42 vvcurveto
          83 -49 38 -14 7 vhcurveto
          18 12 67 45 10 98 18 176 rcurveline
          39 4 9 22 28 hhcurveto
          endchar
        </CharString>
        <CharString name="braceright">
          -246 -4 callsubr
          hstemhm
          120 71 -50 72 hintmask 00000000
          7 -76 rmoveto
          -24 callsubr
          50 hlineto
          33 47 21 95 10 hvcurveto
          18 167 7 67 11 42 46 20 rlinecurve
          17 7 11 9 1 18 1 19 rcurveline
          16 -9 8 -12 5 vhcurveto
          -32 14 -9 29 40 vvcurveto
          hintmask 11100000
          30 22 162 45 vvcurveto
          76 -43 16 -24 vhcurveto
          -50 hlineto
          -24 callsubr
          22 hlineto
          22 7 -14 -24 hvcurveto
          hintmask 11010000
          -51 -21 -131 -42 vvcurveto
          -83 49 -38 14 -7 vhcurveto
          -18 -12 -67 -45 -10 -98 -18 -176 rcurveline
          -39 -4 -9 -22 -28 hhcurveto
          endchar
        </CharString>
        <CharString name="bracketleft">
          -229 -4 callsubr
          hstem
          45 261 vstem
          282 706 rmoveto
          -23 callsubr
          -121 hlineto
          -58 callgsubr
          -89 -846 8 callsubr
          121 hlineto
          -23 callsubr
          -77 hlineto
          82 782 rlineto
          endchar
        </CharString>
        <CharString name="bracketright">
          -229 -4 callsubr
          hstem
          -17 261 vstem
          7 -76 rmoveto
          -24 callsubr
          121 hlineto
          21 10 9 21 2 hvcurveto
          89 846 rlineto
          21 -5 9 -22 vhcurveto
          -121 hlineto
          -24 callsubr
          77 hlineto
          -82 -782 rlineto
          endchar
        </CharString>
        <CharString name="breve">
          585 66 hstem
          17 290 vstem
          158 651 rmoveto
          -49 -43 11 28 -12 hvcurveto
          16 -7 4 9 -17 hhcurveto
          -15 -2 -10 -17 -69 66 -34 68 67 89 39 79 8 -4 4 -10 -18 4 -9 -16 -10 hvcurveto
          -28 -18 -45 -11 -48 hhcurveto
          endchar
        </CharString>
        <CharString name="brokenbar">
          -270 -140 910 hstem
          50 149 vstem
          107 425 rmoveto
          -14 4 -8 18 vhcurveto
          10 hlineto
          17 7 8 14 2 hvcurveto
          34 323 14 callgsubr
          -17 -8 -78 callgsubr
          -91 -866 rmoveto
          -14 4 -8 18 vhcurveto
          10 hlineto
          17 7 8 14 2 hvcurveto
          34 322 14 callgsubr
          -18 -7 -78 callgsubr
          endchar
        </CharString>
        <CharString name="bullet">
          -184 201 251 hstem
          40 253 vstem
          40 313 rmoveto
          -64 47 -48 66 80 60 63 76 63 -48 49 -65 -83 -57 -69 -70 vhcurveto
          endchar
        </CharString>
        <CharString name="c">
          -35 -37 callgsubr
          hstem
          47 87 vstem
          410 85 rmoveto
          -53 callgsubr
          -149 75 -61 141 31 103 6 40 8 hvcurveto
          9 callgsubr
          endchar
        </CharString>
        <CharString name="caron">
          582 142 hstem
          40 242 vstem
          91 604 -93 callgsubr
        </CharString>
        <CharString name="ccedilla">
          -35 -210 49 155 72 391 72 hstem
          47 87 153 72 vstem
          234 -29 callsubr
          18 44 42 4 62 10 6 31 rlinecurve
          9 callgsubr
          -53 callgsubr
          -145 71 -61 133 -4 hvcurveto
          -20 -50 -64 callsubr
        </CharString>
        <CharString name="cedilla">
          -210 49 hstem
          201 72 vstem
          148 -29 callsubr
          20 49 rlineto
          -43 hlineto
          -23 -56 -64 callsubr
        </CharString>
        <CharString name="cent">
          -34 16 -21 533 -20 hstemhm
          51 87 161 41 hintmask 00000000
          414 85 rmoveto
          11 -2 1 -4 -10 -38 -28 -3 -72 vhcurveto
          42 389 rlineto
          -5 60 19 -23 7 hhcurveto
          17 22 37 13 19 -41 28 -76 4 hvcurveto
          hintmask 11110000
          3 30 rlineto
          20 callgsubr
          -15 -6 -6 -14 -1 vhcurveto
          -3 -30 rlineto
          -179 -9 -68 -148 -167 vvcurveto
          -140 66 -62 124 -7 vhcurveto
          -5 -46 rlineto
          -14 3 -6 15 14 6 6 14 2 vhcurveto
          5 45 40 2 81 8 7 36 rlinecurve
          9 callgsubr
          -276 125 rmoveto
          171 66 68 86 7 vhcurveto
          -42 -389 rlineto
          -76 7 -34 45 91 vvcurveto
          endchar
        </CharString>
        <CharString name="circumflex">
          584 142 hstem
          30 242 vstem
          37 616 -106 callgsubr
        </CharString>
        <CharString name="colon">
          -322 -2 110 307 110 hstemhm
          69 104 hintmask 00000000
          69 437 -79 callsubr
          hintmask 11100000
          -51 -483 -79 callsubr
          endchar
        </CharString>
        <CharString name="comma">
          -59 callgsubr
        </CharString>
        <CharString name="copyright">
          219 -7 48 94 45 335 45 100 48 hstem
          10 48 135 54 434 48 vstem
          10 352 -69 callgsubr
          327 -217 rmoveto
          70 54 27 16 7 -13 25 -8 hvcurveto
          -8 -33 -30 -62 hhcurveto
          -93 -45 52 115 117 45 51 96 hvcurveto
          57 29 -27 6 hhcurveto
          8 13 25 10 16 -55 21 -59 -128 -66 -70 -143 -145 62 -67 130 hvcurveto
          endchar
        </CharString>
        <CharString name="currency">
          14 145 61 233 61 hstem
          85 61 234 62 vstem
          143 178 rmoveto
          -21 27 35 -12 39 hhcurveto
          39 36 12 21 32 hvcurveto
          22 -24 rlineto
          -8 6 7 -3 7 hhcurveto
          14 16 17 12 2 hvcurveto
          7 -3 7 -6 7 vhcurveto
          -22 24 rlineto
          29 32 19 44 46 vvcurveto
          32 -10 30 -16 25 vhcurveto
          27 24 rlineto
          10 9 3 7 8 vvcurveto
          13 -16 13 -11 -7 -7 -4 -6 -7 vhcurveto
          -26 -24 rlineto
          21 -27 -35 13 -39 hhcurveto
          -39 -37 -13 -22 -32 hvcurveto
          -22 24 rlineto
          8 -6 -8 2 -7 hhcurveto
          -17 -13 -19 -10 -7 4 -7 5 -6 hvcurveto
          22 -23 rlineto
          -31 -36 -15 -44 -47 vvcurveto
          -31 8 -28 15 -24 vhcurveto
          -26 -24 rlineto
          -8 -8 -5 -7 -8 vvcurveto
          -12 10 -15 15 7 7 3 7 8 vhcurveto
          134 53 rmoveto
          -60 -44 45 58 70 60 60 69 60 45 -47 -59 -69 -63 -58 -67 hvcurveto
          endchar
        </CharString>
        <CharString name="d">
          45 -6 73 389 73 201 22 hstem
          41 88 261 85 vstem
          455 730 rmoveto
          0 -12 -105 -15 -141 vhcurveto
          21 -25 -41 24 -70 hhcurveto
          -152 -99 -42 callgsubr
          115 -42 73 60 59 30 78 42 hvcurveto
          -82 callsubr
          64 593 0 hvcurveto
          -96 callgsubr
          -53 -496 rmoveto
          -131 -42 -67 -36 -45 hhcurveto
          -75 -44 -26 callsubr
          37 120 138 61 36 -22 -16 20 hvcurveto
          endchar
        </CharString>
        <CharString name="dagger">
          15 422 80 200 -20 hstem
          67 439 vstem
          241 422 rmoveto
          -56 -540 rlineto
          -14 9 -8 30 27 14 8 14 2 vhcurveto
          56 540 -56 callgsubr
          endchar
        </CharString>
        <CharString name="daggerdbl">
          15 60 80 282 80 200 -20 hstem
          29 477 vstem
          443 60 rmoveto
          -20 callgsubr
          29 282 -56 callgsubr
          157 hlineto
          -29 -282 -24 callgsubr
          157 hlineto
          -18 -178 rlineto
          -14 9 -8 30 27 14 8 14 2 vhcurveto
          18 178 rlineto
          endchar
        </CharString>
        <CharString name="degree">
          -175 441 45 175 45 hstem
          36 49 168 50 vstem
          36 560 rmoveto
          -67 48 -52 72 81 66 62 84 67 -52 52 -68 -85 -62 -64 -82 vhcurveto
          143 101 rmoveto
          43 31 -35 -44 -56 -44 -40 -49 -43 -32 34 43 51 41 47 53 hvcurveto
          endchar
        </CharString>
        <CharString name="dieresis">
          607 95 hstem
          44 2 callsubr
          vstem
          188 629 rmoveto
          -14 8 -8 30 3 callsubr
          8 14 2 hvcurveto
          5 -93 callsubr
          -13 -8 -14 -1 hvcurveto
          -149 -51 -102 callgsubr
        </CharString>
        <CharString name="divide">
          40 -2 95 104 67 104 95 hstem
          254 90 cntrmask 11100000
          254 390 rmoveto
          -44 callgsubr
          6 -93 callsubr
          -13 -8 -14 -1 hvcurveto
          -213 -214 rmoveto
          18 callgsubr
          404 hlineto
          20 14 11 26 20 -6 10 -21 hvcurveto
          -404 hlineto
          -19 -15 -10 -27 hvcurveto
          168 -207 rmoveto
          -44 callgsubr
          6 -93 callsubr
          -13 -8 -14 -1 hvcurveto
          endchar
        </CharString>
        <CharString name="dollar">
          -24 17 -21 710 -20 hstem
          65 90 36 42 39 42 43 91 vstem
          191 -48 rmoveto
          -14 3 -6 15 13 8 6 14 1 vhcurveto
          4 44 rlineto
          126 11 87 82 129 vvcurveto
          116 -90 38 -80 31 vhcurveto
          25 227 rlineto
          -2 75 31 -36 15 hhcurveto
          10 28 41 13 35 -95 24 -56 1 hvcurveto
          3 29 rlineto
          20 callgsubr
          -16 -4 -6 -14 -2 vhcurveto
          -4 -31 rlineto
          -124 -13 -81 -80 -113 vvcurveto
          -109 86 -33 79 -32 vhcurveto
          -27 -254 rlineto
          2 -95 -49 49 -9 hhcurveto
          -7 -9 -10 -55 -46 110 -14 51 -2 hvcurveto
          -40 514 rmoveto
          70 47 38 60 11 vhcurveto
          -22 -209 rlineto
          -48 21 -37 23 46 vvcurveto
          202 -304 rmoveto
          -70 -49 -49 -65 -12 vhcurveto
          25 235 rlineto
          50 -23 39 -27 -54 vvcurveto
          endchar
        </CharString>
        <CharString name="dotaccent">
          607 95 hstem
          117 89 vstem
          117 629 -102 callgsubr
        </CharString>
        <CharString name="dotlessi">
          -30 callgsubr
          hstem
          63 85 vstem
          -94 callgsubr
          endchar
        </CharString>
        <CharString name="e">
          19 -39 callsubr
          hstem
          46 19 callgsubr
          -101 callgsubr
          endchar
        </CharString>
        <CharString name="eacute">
          -7 callgsubr
          119 181 -31 -91 callgsubr
          -38 148 -103 callsubr
        </CharString>
        <CharString name="ecircumflex">
          19 -39 callsubr
          55 -2 callsubr
          46 87 55 242 -28 -91 callgsubr
          -117 159 -106 callgsubr
        </CharString>
        <CharString name="edieresis">
          19 -39 callsubr
          78 95 hstemhm
          46 87 65 2 callsubr
          -29 1 callsubr
          hintmask 11101001
          -101 callgsubr
          hintmask 00010110
          30 172 rmoveto
          -14 8 -8 30 3 callsubr
          8 14 2 hvcurveto
          5 -93 callsubr
          -13 -8 -14 -1 hvcurveto
          -149 -51 -102 callgsubr
        </CharString>
        <CharString name="egrave">
          -7 callgsubr
          80 168 21 -91 callgsubr
          46 148 -101 callsubr
        </CharString>
        <CharString name="eight">
          15 17 callgsubr
          hstemhm
          33 87 -23 84 202 86 -72 84 hintmask 00000000
          33 171 rmoveto
          -121 85 -56 111 125 115 74 163 88 -46 36 -56 26 vhcurveto
          hintmask 11101000
          59 26 55 53 95 vvcurveto
          100 -77 51 -98 -111 -98 -67 -129 -63 29 -42 39 -25 vhcurveto
          hintmask 11010100
          -90 -35 -42 -80 -94 vvcurveto
          hintmask 11101000
          264 237 rmoveto
          -62 21 -54 21 67 vvcurveto
          82 54 35 63 55 44 -26 -61 -67 -46 -42 -54 -30 vhcurveto
          hintmask 11010100
          -68 -58 rmoveto
          72 -29 82 -16 -86 vvcurveto
          -103 -74 -50 -72 -65 -52 38 77 81 40 50 69 38 vhcurveto
          endchar
        </CharString>
        <CharString name="ellipsis">
          97 -2 110 hstem
          47 104 105 104 104 104 vstem
          464 20 -79 callsubr
          -215 -36 callgsubr
          -216 -36 callgsubr
          endchar
        </CharString>
        <CharString name="emdash">
          480 230 72 hstem
          -1 1000 vstem
          24 302 rmoveto
          -77 callsubr
          958 -57 callgsubr
        </CharString>
        <CharString name="endash">
          -20 230 72 hstem
          -1 502 vstem
          24 302 rmoveto
          -77 callsubr
          460 -57 callgsubr
        </CharString>
        <CharString name="equal">
          -25 callsubr
          428 -28 callgsubr
          -445 -163 rmoveto
          -23 callgsubr
          428 -28 callgsubr
          endchar
        </CharString>
        <CharString name="eth">
          -35 callsubr
          66 50 -23 49 27 15 -4 -20 hstemhm
          42 86 292 1 callsubr
          254 640 rmoveto
          -12 -2 -5 -5 -8 vvcurveto
          -14 10 -16 13 2 2 1 11 83 vhcurveto
          12 -26 13 -31 12 -33 rrcurveto
          8 -24 -26 4 -29 hhcurveto
          -160 -103 -117 -205 -139 72 -74 135 161 97 112 209 hvcurveto
          hintmask 11100111
          109 -32 104 -48 90 vhcurveto
          61 8 rlineto
          12 1 4 6 8 vvcurveto
          8 -4 22 -17 -1 -1 0 -11 -77 vhcurveto
          hintmask 11010111
          -6 10 -20 28 0 vvcurveto
          hintmask 11011011
          9 -7 -8 6 -14 hhcurveto
          -7 -30 -4 0 hvcurveto
          -8 -1 -4 -4 -5 vvcurveto
          -3 1 -3 3 -4 vhcurveto
          8 -13 1 -1 14 -25 rrcurveto
          -74 -584 rmoveto
          -85 -40 46 99 168 62 78 104 85 41 -48 -99 -167 -62 -77 -105 hvcurveto
          endchar
        </CharString>
        <CharString name="exclam">
          -226 -2 110 594 -20 hstem
          65 104 vstem
          98 224 rmoveto
          -14 6 -8 22 vhcurveto
          11 hlineto
          21 10 8 14 2 hvcurveto
          75 456 16 callgsubr
          vhcurveto
          -20 hlineto
          -28 -12 -42 callsubr
          -81 -660 rmoveto
          -64 callgsubr
          17 hlineto
          26 14 -65 callgsubr
          -30 -11 -78 callgsubr
          endchar
        </CharString>
        <CharString name="exclamdown">
          -226 415 110 hstem
          123 104 vstem
          227 503 rmoveto
          -83 callgsubr
          -17 hlineto
          -29 -7 callsubr
          27 13 8 14 2 hvcurveto
          -26 -138 rmoveto
          14 -7 8 -21 vhcurveto
          -11 hlineto
          -21 -10 -42 callsubr
          -75 -456 rlineto
          -60 callsubr
          29 vhcurveto
          20 hlineto
          28 -10 callsubr
          endchar
        </CharString>
        <CharString name="f">
          -195 19 -21 453 72 161 72 hstem
          130 83 vstem
          209 -86 callgsubr
          endchar
        </CharString>
        <CharString name="fi">
          43 -6 72 -47 -21 453 72 2 -20 144 103 -68 72 hstemhm
          128 83 205 98 hintmask 00000000
          hintmask 01100110
          207 -86 callgsubr
          hintmask 00000000
          122 148 rmoveto
          -18 16 -4 26 vhcurveto
          12 hlineto
          28 10 9 13 hvcurveto
          6 59 rlineto
          16 -10 6 -28 vhcurveto
          -12 hlineto
          -26 -14 -62 callsubr
          hintmask 10011001
          24 -623 -63 callsubr
        </CharString>
        <CharString name="five">
          15 -6 72 284 72 206 72 hstem
          374 86 vstem
          203 66 rmoveto
          -85 11 callsubr
          127 -6 27 114 150 50 197 139 -120 42 -101 hvcurveto
          -52 hlineto
          35 206 rlineto
          218 -62 callgsubr
          -267 hlineto
          -21 -12 -9 -21 -3 hvcurveto
          -47 -293 -1 -2 -3 vvcurveto
          -15 7 -7 19 vhcurveto
          85 hlineto
          108 58 -41 -77 -115 -91 -51 -80 hvcurveto
          endchar
        </CharString>
        <CharString name="fl">
          71 -6 72 -47 -21 453 72 161 72 -26 22 hstemhm
          128 83 168 10 callsubr
          hintmask 01110100
          207 -86 callgsubr
          hintmask 10001010
          170 -416 -63 callgsubr
        </CharString>
        <CharString name="florin">
          -188 -187 -21 659 72 161 72 hstem
          15 331 vstem
          199 523 rmoveto
          12 91 rlineto
          60 8 -22 callgsubr
          16 39 10 29 -53 1 -17 -53 -80 -16 -116 -15 hvcurveto
          -13 -101 rlineto
          -40 hlineto
          -24 -3 -34 -11 -16 1 -11 15 hvcurveto
          40 hlineto
          -89 -637 rlineto
          -15 9 -7 28 -18 callgsubr
          26 15 7 15 2 hvcurveto
          89 637 rlineto
          66 hlineto
          38 9 49 4 14 -3 5 -12 hvcurveto
          endchar
        </CharString>
        <CharString name="four">
          15 19 -21 169 72 463 -20 hstem
          4 498 vstem
          417 239 rmoveto
          46 441 rlineto
          13 -5 9 -23 vhcurveto
          -16 hlineto
          -14 -13 -5 -9 -8 hvcurveto
          -377 -459 rlineto
          -2 -2 -1 -7 -8 vvcurveto
          -19 8 -26 10 vhcurveto
          304 hlineto
          -15 -147 rlineto
          -15 6 -7 22 vhcurveto
          23 hlineto
          18 -10 callsubr
          15 147 rlineto
          68 -62 callgsubr
          -380 hmoveto
          258 320 4 -2 -33 -318 rlineto
          endchar
        </CharString>
        <CharString name="fraction">
          -256 19 -21 703 -20 hstem
          -119 512 vstem
          -81 -2 rmoveto
          14 9 7 12 8 hvcurveto
          439 665 -52 callsubr
          -439 -665 rlineto
          -16 callsubr
          endchar
        </CharString>
        <CharString name="g">
          26 -212 72 140 73 452 -20 hstemhm
          42 1 callsubr
          500 504 rmoveto
          -74 callsubr
          hintmask 11110000
          21 -23 -45 33 -64 hhcurveto
          -152 -98 -133 -186 -169 105 -41 67 60 59 30 78 42 hvcurveto
          -179 -15 -51 -69 -96 -104 -42 54 -12 hhcurveto
          -5 -9 -6 -49 -30 70 -41 102 143 76 72 239 25 hvcurveto
          -56 268 rmoveto
          -13 -123 rlineto
          -134 -42 -68 -37 -45 hhcurveto
          -57 -47 34 109 120 34 120 137 52 37 -24 -15 20 -55 callsubr
          endchar
        </CharString>
        <CharString name="germandbls">
          34 0 72 268 72 222 72 hstemhm
          411 88 -84 90 hintmask 00000000
          261 hmoveto
          124 114 81 149 76 -39 62 -74 17 hvcurveto
          hintmask 11110000
          77 31 42 80 65 vvcurveto
          108 -80 37 -101 -119 -87 -76 -109 -11 vhcurveto
          -53 -501 rlineto
          -44 callgsubr
          53 501 rlineto
          70 7 48 43 68 hhcurveto
          49 52 -17 -72 -73 -63 -60 -69 hvcurveto
          -12 -72 callsubr
          35 hlineto
          hintmask 11101000
          64 49 -43 -72 -97 -67 -56 -74 hvcurveto
          -35 -72 callsubr
          endchar
        </CharString>
        <CharString name="grave">
          18 callsubr
          70 168 vstem
          215 605 -101 callsubr
        </CharString>
        <CharString name="greater">
          40 6 441 hstem
          25 493 vstem
          518 239 -67 callgsubr
          endchar
        </CharString>
        <CharString name="greaterequal">
          46 0 73 hstem
          20 504 vstem
          524 344 -67 callgsubr
          -504 -314 -44 callsubr
        </CharString>
        <CharString name="guillemotleft">
          -49 19 callsubr
          44 389 vstem
          339 74 -79 callgsubr
          -59 -156 -79 callgsubr
          endchar
        </CharString>
        <CharString name="guillemotright">
          -49 19 callsubr
          36 390 vstem
          410 230 -80 callsubr
          -25 156 -80 callsubr
          endchar
        </CharString>
        <CharString name="guilsinglleft">
          -220 19 callsubr
          44 217 vstem
          167 74 -79 callgsubr
          endchar
        </CharString>
        <CharString name="guilsinglright">
          -220 19 callsubr
          36 218 vstem
          238 230 -80 callsubr
          endchar
        </CharString>
        <CharString name="h">
          45 -10 callgsubr
          hstemhm
          374 15 callgsubr
          54 19 rmoveto
          -19 callgsubr
          24 16 8 14 2 hvcurveto
          29 277 rlineto
          hintmask 01110000
          128 44 71 31 44 -2 callgsubr
          hvcurveto
          hintmask 01101000
          -48 callsubr
          hintmask 10110000
          -28 callsubr
          -60 -62 -26 -71 -53 vhcurveto
          32 298 rlineto
          -96 callgsubr
          endchar
        </CharString>
        <CharString name="hungarumlaut">
          -136 18 callsubr
          52 327 vstem
          220 605 rmoveto
          -105 callsubr
          -146 hmoveto
          -104 callsubr
        </CharString>
        <CharString name="hyphen">
          -45 callsubr
        </CharString>
        <CharString name="i">
          -30 callgsubr
          144 103 hstemhm
          118 98 hintmask 00000000
          118 671 rmoveto
          -18 16 -4 26 vhcurveto
          12 hlineto
          28 10 9 13 hvcurveto
          6 59 rlineto
          16 -10 6 -28 vhcurveto
          -12 hlineto
          -26 -14 -62 callsubr
          hintmask 11110000
          24 -623 -63 callsubr
        </CharString>
        <CharString name="iacute">
          -30 callgsubr
          100 -18 callsubr
          42 181 -160 85 -90 callgsubr
          hintmask 00110000
          -84 498 -103 callsubr
        </CharString>
        <CharString name="icircumflex">
          -30 callgsubr
          79 -2 callsubr
          12 242 -191 85 -90 callgsubr
          hintmask 00110000
          -129 509 -106 callgsubr
        </CharString>
        <CharString name="idieresis">
          -30 callgsubr
          102 95 hstemhm
          16 89 -42 85 12 89 -90 callgsubr
          hintmask 00110100
          12 522 rmoveto
          -14 8 -8 30 3 callsubr
          8 14 2 hvcurveto
          5 -93 callsubr
          -13 -8 -14 -1 hvcurveto
          -149 -51 -102 callgsubr
        </CharString>
        <CharString name="igrave">
          -30 callgsubr
          100 -18 callsubr
          49 168 -154 85 -90 callgsubr
          hintmask 00110000
          46 498 -101 callsubr
        </CharString>
        <CharString name="infinity">
          268 115 60 212 57 hstem
          47 62 566 64 vstem
          186 115 rmoveto
          82 61 56 62 59 hvcurveto
          -85 61 52 -33 59 hhcurveto
          87 92 64 126 83 -55 56 -84 -87 -52 -63 -53 -58 hvcurveto
          64 -46 -51 52 -77 hhcurveto
          -97 -85 -68 -117 -84 62 -60 77 hvcurveto
          243 167 rmoveto
          56 57 49 49 54 hhcurveto
          51 35 -35 -58 -52 -36 -67 -69 -51 -34 32 75 -56 hvcurveto
          -228 -107 rmoveto
          -56 -36 40 51 67 49 54 60 65 46 -55 -56 31 hvcurveto
          -44 -40 -58 -57 -61 hhcurveto
          endchar
        </CharString>
        <CharString name="integral">
          -148 -162 60 915 58 hstem
          -34 445 vstem
          246 612 rmoveto
          141 14 33 60 67 17 13 -6 2 hhcurveto
          8 11 12 22 24 -36 6 -29 -97 -61 -74 -178 -19 hvcurveto
          -17 -159 -6 -202 -17 -164 rrcurveto
          -166 -17 -53 -30 -41 -24 -10 11 -5 hhcurveto
          -6 -7 -8 -31 -28 44 -4 22 72 78 36 219 23 hvcurveto
          17 163 8 198 16 158 rrcurveto
          endchar
        </CharString>
        <CharString name="j">
          -244 -212 72 665 -20 144 103 hstem
          134 98 vstem
          134 671 rmoveto
          -18 16 -4 26 vhcurveto
          12 hlineto
          28 10 9 13 hvcurveto
          6 59 rlineto
          16 -10 6 -28 vhcurveto
          -12 hlineto
          -26 -14 -62 callsubr
          -80 -796 rmoveto
          -60 -6 -23 -14 -31 -35 -13 17 -8 hhcurveto
          -5 -6 -6 -42 -24 32 -17 46 51 69 22 116 12 hvcurveto
          61 577 rlineto
          -89 callsubr
          -7 -15 -12 callsubr
        </CharString>
        <CharString name="k">
          1 3 callgsubr
          hstem
          54 432 vstem
          170 283 rmoveto
          -4 hlineto
          47 447 rlineto
          -83 callgsubr
          -4 hlineto
          -29 -33 callgsubr
          -75 -710 rlineto
          -44 callgsubr
          24 228 rlineto
          4 hlineto
          196 -237 rlineto
          -12 9 22 -1 22 hhcurveto
          4 hlineto
          33 12 3 13 3 -2 4 -5 7 hvcurveto
          -201 244 218 220 rlineto
          8 8 4 8 5 vvcurveto
          6 -11 6 -23 -41 callgsubr
          -22 -22 -3 -11 -10 hvcurveto
          endchar
        </CharString>
        <CharString name="l">
          -223 -6 72 664 22 hstem
          76 85 vstem
          161 107 -63 callgsubr
        </CharString>
        <CharString name="less">
          40 7 441 hstem
          40 493 vstem
          40 215 -67 callsubr
          endchar
        </CharString>
        <CharString name="lessequal">
          46 0 73 hstem
          20 525 vstem
          52 319 -67 callsubr
          -32 -289 -44 callsubr
        </CharString>
        <CharString name="logicalnot">
          40 265 73 hstem
          46 486 vstem
          48 308 rmoveto
          -2 -17 0 -3 -3 vvcurveto
          -14 6 -6 12 vhcurveto
          391 hlineto
          -18 -166 rlineto
          -14 6 -8 22 vhcurveto
          13 hlineto
          20 10 8 14 2 hvcurveto
          22 209 rlineto
          20 -5 10 -22 vhcurveto
          -434 hlineto
          -15 -6 -9 -21 -12 callsubr
        </CharString>
        <CharString name="lozenge">
          38 -25 744 hstem
          54 454 vstem
          200 -4 rmoveto
          -14 6 8 -7 18 hhcurveto
          19 hlineto
          16 13 6 15 9 hvcurveto
          210 330 5 8 3 6 1 7 rlinecurve
          7 -1 6 -3 7 vhcurveto
          -142 331 rlineto
          14 -6 -9 7 -17 hhcurveto
          -19 hlineto
          -17 -12 -7 -14 -9 hvcurveto
          -210 -331 rlineto
          -6 -9 -3 -7 -9 vvcurveto
          -5 2 -5 2 -5 vhcurveto
          191 -278 rmoveto
          -122 298 185 297 124 -297 rlineto
          endchar
        </CharString>
        <CharString name="lslash">
          -227 -6 72 664 22 hstem
          86 85 vstem
          171 107 rmoveto
          14 14 138 15 142 vhcurveto
          44 25 -11 callgsubr
          -44 -25 rlineto
          15 146 15 137 0 vvcurveto
          -96 callgsubr
          -2 -19 -167 -17 -164 vhcurveto
          -44 -24 rlineto
          -13 7 callgsubr
          5 2 2 4 vhcurveto
          44 24 rlineto
          -13 -126 -11 -114 -19 -89 callgsubr
          endchar
        </CharString>
        <CharString name="m">
          328 -10 callgsubr
          hstemhm
          37 84 -40 81 213 85 189 15 callgsubr
          734 107 rmoveto
          hintmask 10101110
          -28 callsubr
          -62 -64 -33 -75 -45 vhcurveto
          63 -7 -37 45 -87 hhcurveto
          -60 -63 -31 -71 -45 hvcurveto
          1 5 0 4 3 -60 callgsubr
          hintmask 01101101
          -47 -44 -391 0 vhcurveto
          -19 callgsubr
          26 14 8 14 2 hvcurveto
          10 94 11 97 9 96 rrcurveto
          119 44 63 30 41 -2 callgsubr
          -16 -37 -344 0 hvcurveto
          -19 callgsubr
          26 15 8 14 1 hvcurveto
          -1 0 -1 30 287 vhcurveto
          120 44 64 31 41 -2 callgsubr
          hvcurveto
          hintmask 01110101
          -53 callsubr
        </CharString>
        <CharString name="macron">
          612 71 hstem
          23 268 vstem
          48 683 rmoveto
          -24 -1 -33 -70 callsubr
          226 hlineto
          24 1 34 11 16 -3 10 -14 hvcurveto
          endchar
        </CharString>
        <CharString name="minus">
          40 186 72 hstem
          35 489 vstem
          60 258 rmoveto
          -77 callsubr
          447 -57 callgsubr
        </CharString>
        <CharString name="mu">
          46 4 callgsubr
          73 436 22 hstem
          392 85 vstem
          516 -97 callsubr
          -71 -690 rlineto
          -19 callgsubr
          24 16 8 14 2 hvcurveto
          20 189 rlineto
          -5 17 20 -4 24 hhcurveto
          61 64 29 79 53 hvcurveto
          -86 callsubr
          endchar
        </CharString>
        <CharString name="multiply">
          40 0 454 hstem
          34 490 vstem
          44 56 rmoveto
          0 callsubr
          16 -20 rlineto
          -5 5 -14 callgsubr
          190 173 152 -173 rlineto
          -5 5 -14 callgsubr
          22 20 -1 callgsubr
          -153 172 189 171 -1 callgsubr
          -17 20 rlineto
          5 -5 -5 2 -5 callgsubr
          -189 -172 -153 172 rlineto
          5 -5 -5 2 -5 callgsubr
          -21 -20 rlineto
          0 callsubr
          153 -171 rlineto
          endchar
        </CharString>
        <CharString name="n">
          37 -10 callgsubr
          hstemhm
          81 81 195 15 callgsubr
          442 107 rmoveto
          hintmask 10111000
          -73 callsubr
          hintmask 01110100
          -53 callsubr
        </CharString>
        <CharString name="nbspace">
          -40 endchar
        </CharString>
        <CharString name="nine">
          15 20 -21 297 72 266 72 hstem
          69 85 259 84 vstem
          497 504 rmoveto
          128 -62 74 -127 -129 -110 -92 -142 -108 73 -68 98 61 44 15 18 33 vhcurveto
          -44 -112 -89 -98 -142 -56 rrcurveto
          -9 -4 0 -6 -3 vvcurveto
          -15 7 -36 20 69 307 183 322 vhcurveto
          -96 -102 rmoveto
          -16 -30 -46 -18 -53 hhcurveto
          -61 -57 31 83 106 83 46 58 57 61 -26 -109 -39 -6 -29 -6 -29 hvcurveto
          endchar
        </CharString>
        <CharString name="notequal">
          -25 callsubr
          216 hlineto
          -87 -96 rlineto
          -138 hlineto
          -23 callgsubr
          85 hlineto
          -76 -83 rlineto
          -4 -5 -2 -3 -2 vvcurveto
          -4 4 -3 9 vhcurveto
          41 hlineto
          14 9 6 11 10 hvcurveto
          76 83 rlineto
          262 -28 callgsubr
          -209 hlineto
          88 96 rlineto
          130 -28 callgsubr
          -77 hlineto
          71 78 rlineto
          3 4 2 4 2 vvcurveto
          3 -4 4 -8 vhcurveto
          -41 hlineto
          -15 -9 -7 -10 -9 hvcurveto
          -72 -78 rlineto
          endchar
        </CharString>
        <CharString name="ntilde">
          37 -10 callgsubr
          86 73 13 -20 hstemhm
          81 81 -16 318 -107 85 -57 86 hintmask 0000000000000000
          442 107 rmoveto
          hintmask 1010010100000000
          -73 callsubr
          hintmask 0110010010000000
          -48 callsubr
          hintmask 1010010100000000
          -79 508 -26 callgsubr
          hintmask 0000000000000000
          -15 callsubr
          hintmask 0001001000000000
          -82 callgsubr
          hintmask 0000101000000000
          -30 callsubr
        </CharString>
        <CharString name="numbersign">
          14 19 -21 198 77 147 77 hstem
          0 534 vstem
          509 420 rmoveto
          13 12 9 38 -3 callgsubr
          -69 hlineto
          49 174 rlineto
          9 -6 6 -20 vhcurveto
          -5 hlineto
          -38 -5 -8 -14 -4 hvcurveto
          -47 -167 rlineto
          -119 hlineto
          51 174 rlineto
          9 -6 6 -20 -41 callgsubr
          -38 -5 -8 -14 -4 hvcurveto
          -48 -167 rlineto
          -95 6 callgsubr
          82 hlineto
          -42 -147 rlineto
          -91 6 callgsubr
          76 hlineto
          -51 -181 rlineto
          -11 6 -6 20 -18 callgsubr
          35 7 8 14 4 hvcurveto
          50 176 rlineto
          118 hlineto
          -51 -181 rlineto
          -11 6 -6 20 -18 callgsubr
          34 7 8 14 5 hvcurveto
          49 176 rlineto
          92 hlineto
          13 12 9 38 -3 callgsubr
          -76 hlineto
          41 147 rlineto
          -234 -147 rmoveto
          42 147 rlineto
          118 hlineto
          -42 -147 rlineto
          endchar
        </CharString>
        <CharString name="o">
          -35 callsubr
          hstem
          45 86 292 87 vstem
          -98 callsubr
          endchar
        </CharString>
        <CharString name="oacute">
          -35 callsubr
          76 -18 callsubr
          45 86 124 181 -13 -80 callgsubr
          20 539 -103 callsubr
        </CharString>
        <CharString name="ocircumflex">
          -35 callsubr
          55 -2 callsubr
          45 86 60 242 -10 -80 callgsubr
          -59 550 -106 callgsubr
        </CharString>
        <CharString name="odieresis">
          -35 callsubr
          78 95 hstemhm
          45 86 70 2 callsubr
          -11 1 callsubr
          hintmask 11010010
          -98 callsubr
          hintmask 00101100
          88 563 rmoveto
          -14 8 -8 30 3 callsubr
          8 14 2 hvcurveto
          5 -93 callsubr
          -13 -8 -14 -1 hvcurveto
          -149 -51 -102 callgsubr
        </CharString>
        <CharString name="oe">
          351 -39 callsubr
          hstem
          51 86 236 19 callgsubr
          606 -83 callsubr
          -77 -58 -23 -38 -43 hvcurveto
          42 -40 -50 19 -65 hhcurveto
          -47 callsubr
          -140 71 -75 136 64 59 17 39 43 hvcurveto
          -46 46 70 -10 59 hhcurveto
          -92 callgsubr
          -376 -391 -61 callsubr
          52 36 -19 -44 22 hvcurveto
          -28 -54 -13 -67 -72 vvcurveto
          -30 3 -26 7 -22 vhcurveto
          -36 -28 -43 -21 -49 hhcurveto
          endchar
        </CharString>
        <CharString name="ogonek">
          -183 70 hstem
          53 69 vstem
          116 14 rmoveto
          -47 -16 -86 -22 -33 14 -56 94 43 46 10 65 9 -2 4 -4 hvcurveto
          -9 -24 -18 -31 hhcurveto
          -22 -36 3 40 hvcurveto
          28 19 28 16 vvcurveto
          8 -4 4 -12 vhcurveto
          endchar
        </CharString>
        <CharString name="ograve">
          -35 callsubr
          76 -18 callsubr
          45 86 85 168 39 -80 callgsubr
          104 539 -101 callsubr
        </CharString>
        <CharString name="one">
          15 0 72 630 -20 hstem
          8 449 vstem
          432 hmoveto
          -71 callsubr
          -149 hlineto
          64 609 rlineto
          12 -13 9 -16 vhcurveto
          -237 -51 rlineto
          -17 -4 -4 -7 -19 vvcurveto
          -18 4 -22 12 vhcurveto
          180 30 -57 -539 rlineto
          -174 -72 callsubr
          endchar
        </CharString>
        <CharString name="onehalf">
          226 0 42 276 -21 68 42 296 -20 hstemhm
          631 50 -75 callgsubr
          321 -608 -70 callgsubr
        </CharString>
        <CharString name="onequarter">
          151 19 -21 89 41 190 -21 406 -20 hstemhm
          494 52 -75 callgsubr
          396 -522 -74 callgsubr
        </CharString>
        <CharString name="onesuperior">
          -303 318 -21 405 -20 hstem
          54 138 vstem
          104 309 -29 callgsubr
          -59 callsubr
          endchar
        </CharString>
        <CharString name="ordfeminine">
          -201 442 36 192 36 -12 10 hstemhm
          38 43 121 42 hintmask 00000000
          244 498 rmoveto
          hintmask 11011000
          13 20 183 0 vhcurveto
          6 -2 4 -9 -41 callgsubr
          -14 -4 -10 -15 -4 hvcurveto
          hintmask 10111000
          11 -12 -22 16 -32 hhcurveto
          -75 -48 -66 -91 -86 52 -21 33 29 30 15 38 20 hvcurveto
          -5 vlineto
          -33 17 -15 28 9 18 4 12 2 vhcurveto
          2 11 0 7 1 vvcurveto
          3 -1 0 -2 vhcurveto
          -3 -4 -2 -6 hhcurveto
          -8 -10 0 20 hvcurveto
          -29 128 rmoveto
          0 -4 -32 -3 -33 vhcurveto
          -65 -19 -35 -18 -22 hhcurveto
          -28 -23 17 57 59 17 59 67 26 18 -12 -7 10 hvcurveto
          -2 -7 -1 -9 -1 -9 rrcurveto
          endchar
        </CharString>
        <CharString name="ordmasculine">
          -183 441 36 193 36 hstem
          53 43 143 43 vstem
          156 441 rmoveto
          53 73 23 136 88 -53 18 -46 -53 -77 -25 -134 -89 55 -17 48 hvcurveto
          1 36 rmoveto
          -39 -22 18 54 90 36 31 46 38 23 -19 -53 -91 -35 -30 -47 hvcurveto
          endchar
        </CharString>
        <CharString name="oslash">
          -35 callsubr
          hstem
          51 86 292 87 vstem
          51 209 rmoveto
          -55 10 -45 22 -34 vhcurveto
          -41 -42 rlineto
          -4 -4 -1 -3 -4 vvcurveto
          -3 2 -4 4 -4 vhcurveto
          5 -5 rlineto
          -4 4 3 -2 4 hhcurveto
          3 3 2 4 4 hvcurveto
          38 39 rlineto
          -34 35 50 -17 66 hhcurveto
          160 98 111 207 51 -9 43 -19 34 hvcurveto
          49 50 rlineto
          3 4 2 3 4 vvcurveto
          3 -2 4 -4 4 vhcurveto
          -5 5 rlineto
          4 -4 -4 2 -3 hhcurveto
          -4 -3 -2 -4 -3 hvcurveto
          -44 -45 rlineto
          37 -34 -51 20 -66 hhcurveto
          -47 callsubr
          hvcurveto
          86 3 rmoveto
          150 57 95 110 48 34 -16 -31 20 vhcurveto
          -260 -269 rlineto
          -6 19 -3 24 28 vvcurveto
          126 -146 rmoveto
          -45 -32 13 26 -21 hvcurveto
          257 266 rlineto
          5 -17 2 -21 -23 vvcurveto
          -159 -59 -85 -107 vhcurveto
          endchar
        </CharString>
        <CharString name="otilde">
          -35 callsubr
          86 -12 callgsubr
          45 86 28 318 -54 1 callsubr
          hintmask 11000101
          -98 callsubr
          hintmask 00000000
          119 549 -75 callsubr
        </CharString>
        <CharString name="p">
          53 4 callgsubr
          72 390 73 hstem
          87 81 261 87 vstem
          22 -187 rmoveto
          -19 callgsubr
          25 -3 callsubr
          24 233 rlineto
          -20 22 46 -33 67 hhcurveto
          153 98 135 189 170 -114 41 -73 -61 -59 -29 -74 -42 hvcurveto
          1 6 0 7 0 -60 callgsubr
          -48 -65 -596 0 vhcurveto
          288 643 rmoveto
          66 53 -34 -110 -122 -35 -124 -141 -59 -41 31 14 -16 hvcurveto
          6 63 6 62 6 54 rrcurveto
          129 42 68 37 45 hhcurveto
          endchar
        </CharString>
        <CharString name="paragraph">
          -5 638 62 hstem
          61 483 vstem
          199 -151 rmoveto
          -14 3 -8 15 vhcurveto
          22 hlineto
          12 8 8 14 2 hvcurveto
          83 789 rlineto
          78 hlineto
          -83 -789 rlineto
          -14 3 -8 15 vhcurveto
          22 hlineto
          12 8 8 14 2 hvcurveto
          83 789 rlineto
          36 hlineto
          14 7 6 14 1 hvcurveto
          2 22 rlineto
          14 -2 6 -16 vhcurveto
          -213 hlineto
          -132 -120 -91 -159 -107 75 -84 105 -12 hvcurveto
          endchar
        </CharString>
        <CharString name="parenleft">
          -219 -191 -21 hstem
          50 81 vstem
          290 773 rmoveto
          -140 -117 -100 -219 -241 vvcurveto
          -167 52 -143 85 -87 vhcurveto
          -7 7 7 -4 7 hhcurveto
          18 13 22 9 5 -2 6 -5 6 hvcurveto
          -64 87 -37 126 143 vvcurveto
          218 80 203 117 123 vhcurveto
          7 8 4 9 7 vvcurveto
          13 -16 10 -11 -7 -8 -3 -7 -7 vhcurveto
          endchar
        </CharString>
        <CharString name="parenright">
          -219 -190 -21 hstem
          169 81 vstem
          -31 -170 rmoveto
          -6 -6 -3 -4 -6 vvcurveto
          -12 15 -13 14 7 7 3 7 7 vhcurveto
          139 117 101 218 242 vvcurveto
          167 -52 143 -85 87 vhcurveto
          7 -7 -7 4 -7 hhcurveto
          -18 -13 -22 -9 -5 2 -6 5 -6 hvcurveto
          63 -88 38 -125 -144 vvcurveto
          -186 -65 -222 -135 -141 vhcurveto
          endchar
        </CharString>
        <CharString name="partialdiff">
          -6 -6 67 254 -21 50 70 251 73 hstem
          20 92 271 98 vstem
          251 738 rmoveto
          -61 -88 -29 -31 -15 18 -28 10 hvcurveto
          11 29 30 60 hhcurveto
          86 67 -92 -153 -20 -1 -20 -2 -21 hvcurveto
          27 -22 -39 28 -69 hhcurveto
          -92 -138 -69 -177 -137 107 -37 71 98 185 80 346 207 -95 111 -135 hvcurveto
          5 -394 rmoveto
          54 31 -17 -33 30 hvcurveto
          -122 -21 -58 -111 -86 hhcurveto
          -70 -24 58 53 83 62 89 82 hvcurveto
          endchar
        </CharString>
        <CharString name="percent">
          245 -6 55 -30 -21 267 54 62 55 216 54 -4 -20 hstemhm
          78 66 148 64 52 66 148 64 hintmask 0000000000000000
          356 574 rmoveto
          -72 callgsubr
          hintmask 1011101111000000
          -225 -21 callsubr
          439 666 -52 callsubr
          -365 14 callsubr
          hintmask 0111011111000000
          -27 callgsubr
          vhcurveto
          hintmask 1011101111000000
          -61 -17 -78 -70 vhcurveto
          hintmask 0111011111000000
          481 -249 rmoveto
          -72 callgsubr
          -151 -138 rmoveto
          -39 callgsubr
          endchar
        </CharString>
        <CharString name="period">
          -322 -2 110 hstem
          47 104 vstem
          47 20 -79 callsubr
          endchar
        </CharString>
        <CharString name="periodcentered">
          -253 309 103 hstem
          89 103 vstem
          89 354 rmoveto
          -26 19 -19 27 31 26 22 35 26 -19 20 -27 -33 -24 -25 -33 vhcurveto
          endchar
        </CharString>
        <CharString name="perthousand">
          518 19 -21 383 55 216 54 -4 -20 hstemhm
          80 66 148 64 hintmask 00000000
          358 574 rmoveto
          -72 callgsubr
          -248 -21 callsubr
          hintmask 11101100
          439 666 -52 callsubr
          -342 14 callsubr
          hintmask 01011100
          -27 callgsubr
          vhcurveto
          hintmask 00101100
          -61 -17 -78 -70 vhcurveto
          hintmask 01011100
          750 -249 rmoveto
          -72 callgsubr
          -312 hmoveto
          -72 callgsubr
          161 -138 rmoveto
          -39 callgsubr
          -312 hmoveto
          -39 callgsubr
          endchar
        </CharString>
        <CharString name="pi">
          96 19 -21 453 72 hstem
          401 86 vstem
          89 -2 rmoveto
          16 14 9 16 7 hvcurveto
          46 103 51 198 21 127 rrcurveto
          194 hlineto
          -36 -343 -1 8 -60 vvcurveto
          -41 9 -17 26 vhcurveto
          28 hlineto
          20 3 14 21 hvcurveto
          49 vlineto
          53 12 93 23 223 vhcurveto
          56 hlineto
          38 1 53 4 5 -4 10 -18 hvcurveto
          -406 hlineto
          -102 -52 -12 -43 -17 5 -9 13 hvcurveto
          18 11 9 78 hhcurveto
          -20 -131 -48 -180 -49 -112 rrcurveto
          -1 -4 -2 -3 -4 vvcurveto
          -11 9 -8 17 vhcurveto
          endchar
        </CharString>
        <CharString name="plus">
          40 19 -21 199 67 hstem
          47 465 vstem
          243 197 rmoveto
          -19 -179 rlineto
          -14 6 -6 22 vhcurveto
          7 hlineto
          19 11 6 14 2 hvcurveto
          19 179 rlineto
          178 hlineto
          14 10 9 28 -3 callgsubr
          -178 hlineto
          19 179 rlineto
          14 -7 6 -21 vhcurveto
          -7 hlineto
          -24 -7 -6 -14 -1 hvcurveto
          -19 -179 rlineto
          -179 hlineto
          -14 -10 -9 -28 -20 2 -10 15 hvcurveto
          endchar
        </CharString>
        <CharString name="plusminus">
          40 0 73 254 67 hstem
          9 510 vstem
          232 159 rmoveto
          18 callgsubr
          7 hlineto
          8 callgsubr
          18 168 rlineto
          168 hlineto
          8 callgsubr
          1 7 -13 callgsubr
          -168 hlineto
          18 169 -13 callgsubr
          -7 hlineto
          -19 -12 -10 -20 -2 hvcurveto
          -18 -169 rlineto
          -169 hlineto
          -19 -12 -10 -20 -2 hvcurveto
          -1 -7 rlineto
          18 callgsubr
          169 hlineto
          -241 -297 rmoveto
          -21 6 -9 21 vhcurveto
          424 -32 callgsubr
          -424 -6 callgsubr
        </CharString>
        <CharString name="product">
          230 628 72 hstem
          61 703 vstem
          86 21 callgsubr
          -14 -11 -9 -33 -20 2 -10 15 hvcurveto
          103 -21 callgsubr
          283 -21 callgsubr
          103 hlineto
          14 11 9 33 -3 callgsubr
          endchar
        </CharString>
        <CharString name="q">
          46 4 callgsubr
          73 458 -20 hstemhm
          45 1 callsubr
          518 503 rmoveto
          14 -5 8 -20 vhcurveto
          -8 hlineto
          -22 -13 -25 -25 -7 hvcurveto
          hintmask 11110000
          22 -23 -46 32 -64 hhcurveto
          -161 -104 -42 callgsubr
          114 -42 73 59 58 30 74 42 hvcurveto
          -29 -284 rlineto
          -15 10 -7 28 3 callsubr
          6 16 2 hvcurveto
          -27 553 rmoveto
          -14 -134 rlineto
          -130 -42 -67 -36 -45 hhcurveto
          -66 -53 -26 callsubr
          37 120 149 53 37 -23 -16 19 hvcurveto
          -3 -15 -3 -17 -2 -18 rrcurveto
          endchar
        </CharString>
        <CharString name="question">
          -75 -2 110 524 74 hstem
          104 104 141 96 vstem
          233 632 rmoveto
          77 39 -29 -60 -59 -47 -42 -64 -58 hvcurveto
          -60 -54 -43 -64 -43 vvcurveto
          -13 8 -8 20 vhcurveto
          15 hlineto
          23 9 7 13 3 hvcurveto
          29 121 203 65 148 vvcurveto
          82 -64 68 -124 -76 -102 -24 -35 -16 16 -33 10 vhcurveto
          15 50 34 63 hhcurveto
          -129 -612 rmoveto
          -60 callsubr
          29 vhcurveto
          17 hlineto
          26 15 -65 callgsubr
          -28 -13 -8 -14 -1 hvcurveto
          endchar
        </CharString>
        <CharString name="questiondown">
          -95 -183 74 524 110 hstem
          32 95 146 104 vstem
          377 503 rmoveto
          14 -8 -68 callgsubr
          -17 hlineto
          -30 -7 callsubr
          28 13 8 14 1 hvcurveto
          -127 -546 rmoveto
          -77 -39 29 59 60 47 42 64 58 hvcurveto
          60 54 43 64 43 vvcurveto
          13 -8 8 -20 vhcurveto
          -15 hlineto
          -23 -9 -7 -13 -3 hvcurveto
          -29 -122 -202 -64 -148 vvcurveto
          -82 63 -68 124 35 107 7 40 8 vhcurveto
          5 27 0 17 5 vvcurveto
          11 -1 1 -6 vhcurveto
          -7 -48 -34 -69 hhcurveto
          endchar
        </CharString>
        <CharString name="quotedbl">
          -201 188 484 -61 callgsubr
          -128 -196 -61 callgsubr
          endchar
        </CharString>
        <CharString name="quotedblbase">
          -184 -116 224 hstem
          1 289 vstem
          244 108 -46 callsubr
          -147 hmoveto
          -88 callgsubr
        </CharString>
        <CharString name="quotedblleft">
          -170 17 callsubr
          32 291 vstem
          218 531 rmoveto
          -69 callsubr
          -131 hmoveto
          -69 callsubr
          endchar
        </CharString>
        <CharString name="quotedblright">
          -170 17 callsubr
          22 291 vstem
          267 755 -46 callsubr
          -149 hmoveto
          -88 callgsubr
        </CharString>
        <CharString name="quoteleft">
          -308 17 callsubr
          49 151 vstem
          95 531 rmoveto
          -69 callsubr
          endchar
        </CharString>
        <CharString name="quoteright">
          -308 530 224 hstem
          20 151 vstem
          125 754 rmoveto
          -88 callgsubr
        </CharString>
        <CharString name="quotesinglbase">
          -59 callgsubr
        </CharString>
        <CharString name="quotesingle">
          -337 702 -20 hstem
          59 89 vstem
          59 484 -61 callgsubr
          endchar
        </CharString>
        <CharString name="r">
          -154 19 -21 448 83 hstem
          106 81 vstem
          146 20 rmoveto
          0 15 140 13 128 vhcurveto
          127 35 55 31 37 26 5 -11 8 hhcurveto
          12 17 31 25 31 -30 7 -20 -51 -50 -38 -62 -32 hvcurveto
          1 6 0 4 0 -60 callgsubr
          -48 -44 -390 0 vhcurveto
          -19 callgsubr
          26 14 8 14 2 hvcurveto
          endchar
        </CharString>
        <CharString name="radical">
          98 317 -21 hstem
          33 641 vstem
          39 285 rmoveto
          -10 2 5 -3 7 hhcurveto
          7 1 1 23 63 hvcurveto
          117 -425 rlineto
          -14 4 12 -7 19 hhcurveto
          30 hlineto
          17 15 8 13 5 hvcurveto
          330 924 1 -1 6 vvcurveto
          7 -8 6 -21 vhcurveto
          -12 hlineto
          -30 -7 -8 -13 -4 hvcurveto
          -290 -830 -3 20 -4 24 -7 28 rlinecurve
          -29 118 -32 117 -22 90 rrcurveto
          14 -3 -6 7 -10 hhcurveto
          -10 -81 -32 -17 -46 hvcurveto
          -12 -5 -4 -7 -9 vvcurveto
          -3 2 -7 4 -15 vhcurveto
          endchar
        </CharString>
        <CharString name="registered">
          219 -6 48 285 45 141 45 103 48 hstem
          10 48 191 52 153 54 173 48 vstem
          10 353 -69 callgsubr
          191 -196 rmoveto
          -8 7 -5 17 -18 callgsubr
          17 7 5 8 hvcurveto
          170 53 vlineto
          46 24 -12 -46 18 hvcurveto
          45 -116 rlineto
          -5 2 9 -4 12 hhcurveto
          6 hlineto
          17 8 4 5 2 -1 3 -1 4 hvcurveto
          -46 116 -16 39 -12 25 -25 9 rlinecurve
          4 vlineto
          41 16 27 32 51 vvcurveto
          74 -50 30 -92 vhcurveto
          -99 hlineto
          -13 -5 -5 -13 hvcurveto
          52 -168 rmoveto
          141 74 vlineto
          47 32 -21 -48 -39 -33 -33 -42 hvcurveto
          endchar
        </CharString>
        <CharString name="ring">
          564 35 99 35 hstem
          75 35 99 35 vstem
          151 564 -73 callgsubr
        </CharString>
        <CharString name="s">
          -107 -37 callgsubr
          hstem
          53 88 129 86 vstem
          -68 callsubr
          endchar
        </CharString>
        <CharString name="scaron">
          -107 -37 callgsubr
          53 -2 callsubr
          53 88 -21 242 -92 86 -19 callsubr
          -68 callsubr
          hintmask 00101000
          144 553 -93 callgsubr
        </CharString>
        <CharString name="section">
          -91 17 callgsubr
          hstemhm
          49 85 -48 88 81 87 -49 86 hintmask 00000000
          167 -6 rmoveto
          hintmask 11100100
          79 96 44 116 32 -13 24 -18 17 hvcurveto
          hintmask 11101000
          40 30 28 45 64 166 -205 -55 91 vvcurveto
          37 29 29 59 -16 callgsubr
          -79 12 -44 -80 -96 -44 -113 -34 12 -24 18 -17 hvcurveto
          hintmask 11010100
          -38 -30 -29 -46 -60 -169 206 55 -93 vvcurveto
          -35 -30 -30 -59 vhcurveto
          -53 -38 29 -9 hhcurveto
          -9 -7 -22 -32 hvcurveto
          hintmask 11101000
          -34 72 -13 45 vhcurveto
          62 272 rmoveto
          -50 15 -45 15 53 vvcurveto
          54 36 24 29 8 vhcurveto
          49 -15 45 -16 -51 vvcurveto
          -56 -34 -24 -30 -7 vhcurveto
          endchar
        </CharString>
        <CharString name="semicolon">
          -322 415 110 hstem
          75 104 vstem
          75 437 -79 callsubr
          7 -395 rmoveto
          -88 callgsubr
        </CharString>
        <CharString name="seven">
          15 19 -21 630 72 hstem
          62 459 vstem
          111 21 callgsubr
          -77 callsubr
          316 hlineto
          -352 -600 rlineto
          -4 -7 -1 -4 -4 vvcurveto
          -12 14 -3 27 vhcurveto
          12 hlineto
          20 15 6 10 6 hvcurveto
          362 624 rlineto
          2 5 1 5 7 vvcurveto
          20 -8 25 -7 vhcurveto
          endchar
        </CharString>
        <CharString name="six">
          15 -5 72 253 -21 34 72 297 -20 hstem
          37 84 259 85 vstem
          37 197 rmoveto
          -128 62 -74 127 129 110 92 142 108 -73 68 -98 -61 -44 -15 -18 -33 vhcurveto
          44 112 89 98 142 56 rrcurveto
          9 4 0 6 3 vvcurveto
          15 -7 36 -20 -69 -307 -183 -322 vhcurveto
          96 102 rmoveto
          16 30 46 18 53 hhcurveto
          61 57 -31 -83 -106 -83 -46 -58 -57 -61 26 109 39 6 29 6 29 hvcurveto
          endchar
        </CharString>
        <CharString name="slash">
          -150 702 -20 hstem
          -55 465 vstem
          -52 -59 rmoveto
          -2 -4 -1 -4 -2 vvcurveto
          -6 4 -4 10 vhcurveto
          23 hlineto
          14 8 7 13 7 hvcurveto
          396 741 rlineto
          2 4 1 3 3 vvcurveto
          6 -5 4 -9 vhcurveto
          -24 hlineto
          -15 -7 -8 -12 -7 hvcurveto
          endchar
        </CharString>
        <CharString name="space">
          -280 endchar
        </CharString>
        <CharString name="sterling">
          -29 0 72 267 72 223 72 hstemhm
          129 84 hintmask 00000000
          326 339 rmoveto
          -47 callgsubr
          -146 hlineto
          9 92 rlineto
          91 9 47 40 95 32 22 -9 8 hhcurveto
          16 11 45 4 27 -57 5 -40 -149 -65 -82 -126 -13 hvcurveto
          -9 -87 rlineto
          hintmask 11110000
          -56 -72 callsubr
          56 hlineto
          -19 -180 -9 -86 -85 16 -4 -43 rlinecurve
          -2 -20 0 -4 -4 vvcurveto
          -12 5 -6 11 vhcurveto
          374 hlineto
          14 11 9 33 -3 callgsubr
          -280 hlineto
          21 13 41 26 14 138 9 90 rcurveline
          endchar
        </CharString>
        <CharString name="summation">
          73 -102 85 338 -21 328 72 hstem
          -16 608 vstem
          -36 vmoveto
          -10 -14 -6 -11 -18 vvcurveto
          -15 10 -8 16 vhcurveto
          489 hlineto
          19 13 10 20 2 hvcurveto
          2 25 rlineto
          19 -6 11 -21 vhcurveto
          -396 4 hlineto
          268 303 6 7 3 7 1 7 rlinecurve
          7 -1 7 -5 7 vhcurveto
          -184 292 rlineto
          4 358 vlineto
          8 callgsubr
          1 12 rlineto
          19 -5 11 -21 vhcurveto
          -459 hlineto
          -23 -10 -11 -22 -11 1 -9 7 -9 hvcurveto
          217 -338 rlineto
          endchar
        </CharString>
        <CharString name="t">
          -178 -6 72 385 72 hstemhm
          85 85 -36 89 hintmask 00000000
          128 523 rmoveto
          hintmask 11010000
          -50 -72 callsubr
          50 hlineto
          0 -35 -317 -30 vvcurveto
          -96 67 -14 45 29 33 8 25 6 vhcurveto
          4 17 1 19 1 vvcurveto
          7 -4 2 -3 vhcurveto
          5 callsubr
          34 308 0 hvcurveto
          hintmask 11100000
          -34 callgsubr
          endchar
        </CharString>
        <CharString name="thorn">
          50 4 callgsubr
          72 390 73 hstem
          426 87 vstem
          36 -187 rmoveto
          -19 callgsubr
          23 17 8 14 2 hvcurveto
          24 231 rlineto
          -20 23 46 -31 64 hhcurveto
          144 92 133 186 174 -105 42 -67 -58 -56 -27 -66 -41 hvcurveto
          31 295 rlineto
          12 -11 9 -27 -41 callgsubr
          -25 -16 -78 callgsubr
          189 -274 rmoveto
          57 47 -35 -114 -120 -32 -121 -129 -57 -39 28 16 -18 hvcurveto
          21 195 rlineto
          118 42 64 33 44 hhcurveto
          endchar
        </CharString>
        <CharString name="three">
          15 -6 72 270 71 227 72 hstemhm
          367 1 callsubr
          204 407 rmoveto
          -24 -1 -33 -70 callsubr
          34 hlineto
          82 55 -25 -83 -129 -95 -33 -64 hvcurveto
          -92 11 callsubr
          141 -6 27 101 145 61 173 90 -54 54 -54 15 hvcurveto
          1 4 rlineto
          hintmask 11110000
          64 24 54 54 85 vvcurveto
          102 -74 50 -110 -62 -123 -24 -30 -16 17 -35 11 vhcurveto
          17 39 33 91 hhcurveto
          88 21 -48 -38 -45 -36 -96 -111 hvcurveto
          endchar
        </CharString>
        <CharString name="threequarters">
          218 19 -21 89 41 168 13 callsubr
          242 50 -43 49 264 52 hintmask 00000000
          148 -58 callsubr
          hintmask 11111101
          -40 callgsubr
          -40 -520 -52 callgsubr
          hintmask 11111011
          -56 callsubr
          21 -559 -74 callgsubr
        </CharString>
        <CharString name="threesuperior">
          296 13 callsubr
          230 50 hintmask 00000000
          136 -58 callsubr
          hintmask 11110000
          -40 callgsubr
          endchar
        </CharString>
        <CharString name="tilde">
          -155 615 -12 callgsubr
          24 318 hintmask 00000000
          241 615 -26 callgsubr
          hintmask 10010000
          -15 callsubr
          hintmask 00110000
          -82 callgsubr
          hintmask 01010000
          -30 callsubr
        </CharString>
        <CharString name="trademark">
          252 657 44 hstemhm
          149 50 153 49 275 49 hintmask 00000000
          684 701 rmoveto
          -14 -6 -4 -6 -4 hvcurveto
          -106 -188 -15 -32 -14 35 -107 185 rlineto
          6 -3 -7 4 -13 hhcurveto
          -21 hlineto
          -15 -7 -4 -8 hvcurveto
          -372 vlineto
          -8 7 -4 15 -18 callgsubr
          16 7 4 8 hvcurveto
          306 vlineto
          115 -200 rlineto
          -5 3 3 -2 6 hhcurveto
          23 hlineto
          6 3 2 5 3 hvcurveto
          113 197 rlineto
          -303 vlineto
          -8 7 -4 16 -18 callgsubr
          15 7 4 8 hvcurveto
          372 vlineto
          8 -7 4 -15 vhcurveto
          -554 -384 rmoveto
          -7 7 -5 16 -18 callgsubr
          16 7 5 7 hvcurveto
          hintmask 11110000
          340 106 vlineto
          8 3 5 12 hvcurveto
          9 vlineto
          12 -3 5 -8 vhcurveto
          -264 hlineto
          -8 -3 -5 -12 hvcurveto
          -9 vlineto
          -12 3 -5 8 vhcurveto
          108 hlineto
          endchar
        </CharString>
        <CharString name="two">
          15 0 72 562 72 hstem
          400 87 vstem
          136 72 rmoveto
          270 298 rlineto
          58 64 23 50 72 vvcurveto
          90 -74 60 -122 -62 -126 -32 -43 -16 17 -32 10 vhcurveto
          17 47 51 91 hhcurveto
          72 43 -35 -56 -40 -20 -48 -47 -52 hvcurveto
          -309 -342 rlineto
          -2 -2 0 -3 -4 vvcurveto
          -18 10 -34 10 vhcurveto
          374 -57 callgsubr
        </CharString>
        <CharString name="twosuperior">
          299 42 323 42 hstem
          237 50 vstem
          85 341 -70 callgsubr
        </CharString>
        <CharString name="u">
          -14 callsubr
          hstem
          57 86 224 85 vstem
          -104 callgsubr
          endchar
        </CharString>
        <CharString name="uacute">
          -14 callsubr
          80 -18 callsubr
          57 86 114 181 -71 -95 callsubr
          -212 102 -103 callsubr
        </CharString>
        <CharString name="ucircumflex">
          -14 callsubr
          59 -2 callsubr
          57 86 50 242 -68 -95 callsubr
          -291 113 -106 callgsubr
        </CharString>
        <CharString name="udieresis">
          -14 callsubr
          82 95 hstemhm
          57 86 60 2 callsubr
          -69 10 callsubr
          hintmask 11010010
          -104 callgsubr
          hintmask 00101100
          -144 126 rmoveto
          -14 8 -8 30 3 callsubr
          8 14 2 hvcurveto
          5 -93 callsubr
          -13 -8 -14 -1 hvcurveto
          -149 -51 -102 callgsubr
        </CharString>
        <CharString name="ugrave">
          -14 callsubr
          80 -18 callsubr
          57 86 75 168 -19 -95 callsubr
          -128 102 -101 callsubr
        </CharString>
        <CharString name="underscore">
          14 -138 48 hstem
          -21 576 vstem
          532 -138 rmoveto
          14 9 6 22 20 callgsubr
          hvcurveto
          -535 hlineto
          -14 -9 -6 -22 -14 4 -6 14 hvcurveto
          endchar
        </CharString>
        <CharString name="uni00AD">
          -45 callsubr
        </CharString>
        <CharString name="v">
          -35 3 callgsubr
          hstem
          40 443 vstem
          479 494 rmoveto
          3 7 1 4 5 vvcurveto
          10 -13 5 -28 -21 -16 -4 -12 -5 vhcurveto
          -177 -405 -91 405 rlineto
          12 -3 -16 9 callsubr
          -14 -7 -10 -1 hvcurveto
          -4 1 -6 111 -484 vhcurveto
          -49 callsubr
          35 -57 callsubr
          endchar
        </CharString>
        <CharString name="w">
          227 3 callgsubr
          hstemhm
          51 685 hintmask 00000000
          441 508 rmoveto
          13 -2 -15 -9 callgsubr
          -11 hlineto
          -20 -16 -4 -13 -5 hvcurveto
          hintmask 11100000
          -145 -398 -63 399 12 callgsubr
          -30 -14 -7 -10 -1 hvcurveto
          -4 1 -6 84 -484 vhcurveto
          7 callsubr
          33 hlineto
          20 17 4 12 4 hvcurveto
          133 364 53 -364 rlineto
          -12 2 16 -4 20 hhcurveto
          33 -57 callsubr
          185 480 rlineto
          3 7 1 4 5 vvcurveto
          10 -14 5 -28 -20 -19 -4 -12 -4 vhcurveto
          -146 -399 rlineto
          endchar
        </CharString>
        <CharString name="x">
          -35 3 callgsubr
          hstem
          -7 485 vstem
          232 196 rmoveto
          105 -183 rlineto
          -12 7 14 -3 21 hhcurveto
          11 hlineto
          34 12 6 11 2 hvcurveto
          5 -2 6 -5 7 vhcurveto
          -137 237 175 220 rlineto
          6 8 3 6 6 vvcurveto
          10 -13 5 -31 -41 callgsubr
          -18 -18 -3 -11 -8 hvcurveto
          -133 -167 -96 166 -31 callsubr
          -11 hlineto
          -34 -12 -6 -11 -2 hvcurveto
          -5 2 -6 5 -7 vhcurveto
          126 -222 -187 -235 rlineto
          -6 -9 -3 -5 -6 vvcurveto
          -11 13 -4 31 -18 callgsubr
          18 17 3 11 9 hvcurveto
          endchar
        </CharString>
        <CharString name="y">
          1 callgsubr
          hstem
          41 444 vstem
          -85 callsubr
          endchar
        </CharString>
        <CharString name="yacute">
          1 callgsubr
          100 -18 callsubr
          41 444 -271 181 -31 callgsubr
          -85 callsubr
          hintmask 00101000
          84 792 -103 callsubr
        </CharString>
        <CharString name="ydieresis">
          1 callgsubr
          102 95 hstemhm
          41 444 -325 2 callsubr
          -31 callgsubr
          -85 callsubr
          hintmask 00101100
          152 816 rmoveto
          -14 8 -8 30 3 callsubr
          8 14 2 hvcurveto
          5 -93 callsubr
          -13 -8 -14 -1 hvcurveto
          -149 -51 -102 callgsubr
        </CharString>
        <CharString name="yen">
          39 19 -21 194 67 96 67 280 -20 hstem
          229 88 vstem
          73 422 rmoveto
          11 callgsubr
          168 hlineto
          -9 -96 rlineto
          -169 hlineto
          11 callgsubr
          169 hlineto
          -18 -172 -51 callgsubr
          18 172 -1 callsubr
          -171 hlineto
          10 96 -1 callsubr
          -127 hlineto
          192 245 rlineto
          -81 callsubr
          140 -245 rlineto
          endchar
        </CharString>
        <CharString name="z">
          -31 0 72 379 72 hstem
          14 456 vstem
          -66 callsubr
          endchar
        </CharString>
        <CharString name="zcaron">
          -31 0 72 379 72 59 -2 callsubr
          14 456 -287 242 -31 callgsubr
          -66 callsubr
          hintmask 00101000
          203 604 -93 callgsubr
        </CharString>
        <CharString name="zero">
          15 17 callgsubr
          hstem
          34 85 295 85 vstem
          228 -6 rmoveto
          127 144 129 304 194 -89 85 -107 -127 -142 -130 -307 -191 88 -84 106 hvcurveto
          8 72 rmoveto
          -62 -55 55 149 270 101 94 75 62 57 -57 -152 -266 -104 -93 -74 hvcurveto
          endchar
        </CharString>
      <CharString index="0">
        -50 callgsubr
        hstemhm
        40 87 236 10 callsubr
        448 107 rmoveto
        hintmask 11011000
        -76 callgsubr
        hintmask 10111000
        -107 callsubr
        return
      </CharString>
      <CharString index="1">
        rmoveto
        -5 -8 -2 -6 -6 vvcurveto
        -8 7 -4 14 15 11 4 9 11 vhcurveto
        69 74 55 -74 rlineto
        -9 9 10 -4 13 hhcurveto
        17 10 6 9 1 hvcurveto
        5 -1 6 -4 6 vhcurveto
        -47 88 rlineto
        15 -8 -17 7 -19 hhcurveto
        -25 hlineto
        -20 -17 -7 -15 -11 hvcurveto
        endchar
      </CharString>
      <CharString index="2">
        474 14 rmoveto
        -49 callsubr
        8 hlineto
        34 10 9 11 3 0 3 -1 4 hvcurveto
        -168 658 rlineto
        -43 callsubr
        -29 hlineto
        -21 -15 -4 -12 -5 hvcurveto
        -305 -657 rlineto
        -3 -6 -2 -5 -4 vvcurveto
        -11 13 -5 28 vhcurveto
        5 -57 callsubr
        74 164 rlineto
        294 hlineto
        -258 76 rmoveto
        137 298 22 58 7 -58 73 -298 rlineto
        return
      </CharString>
      <CharString index="3">
        491 -97 callsubr
        0 -38 -366 -13 vvcurveto
        -74 35 -56 97 61 64 29 79 53 vhcurveto
        -86 callsubr
        return
      </CharString>
      <CharString index="4">
        4 22 0 14 1 vvcurveto
        6 -3 1 -3 vhcurveto
        -6 -9 -5 -12 hhcurveto
        -16 return
      </CharString>
      <CharString index="5">
        rmoveto
        -14 8 -8 30 3 callsubr
        8 14 2 hvcurveto
        5 -93 callsubr
        -12 -42 callsubr
        endchar
      </CharString>
      <CharString index="6">
        279 -83 callsubr
        -196 -79 -149 -179 -179 127 -28 99 -92 callgsubr
        return
      </CharString>
      <CharString index="7">
        rmoveto
        30 40 366 0 vhcurveto
        -96 callgsubr
        -2 -39 -373 -41 -66 33 -29 56 18 37 8 25 5 hvcurveto
        -103 callgsubr
        -19 20 callsubr
        return
      </CharString>
      <CharString index="8">
        114 680 rmoveto
        -49 -467 -1 -10 -10 vvcurveto
        -125 87 -74 164 176 106 86 144 15 vhcurveto
        48 456 rlineto
        -76 callsubr
        -48 -459 rlineto
        -88 -9 -85 -63 -107 hhcurveto
        -112 -58 55 81 5 0 5 49 464 hvcurveto
        -76 callsubr
        return
      </CharString>
      <CharString index="9">
        hintmask 00000000
        hintmask 11101000
        -105 callgsubr
        return
      </CharString>
      <CharString index="10">
        -25 callgsubr
        354 -91 callsubr
        -296 hlineto
        25 244 rlineto
        264 -91 callsubr
        -264 -22 callsubr
        295 -91 callsubr
        return
      </CharString>
      <CharString index="11">
        -89 callsubr
        -62 callsubr
        return
      </CharString>
      <CharString index="12">
        -27 -14 -13 -19 -2 13 callgsubr
        -14 -43 -33 -51 rrcurveto
        -5 -8 -3 -4 -6 vvcurveto
        -11 17 -3 11 33 78 76 120 12 vhcurveto
        17 -11 11 -26 vhcurveto
        return
      </CharString>
      <CharString index="13">
        148 107 -100 callgsubr
        return
      </CharString>
      <CharString index="14">
        rmoveto
        -15 8 17 -7 19 hhcurveto
        25 hlineto
        20 17 7 15 11 hvcurveto
        67 88 rlineto
        5 7 2 6 5 vvcurveto
        9 -8 5 -16 -13 -10 -4 -9 -11 vhcurveto
        -71 -74 -53 74 rlineto
        9 -9 -11 4 -15 hhcurveto
        -15 -9 -5 -9 -1 hvcurveto
        -5 1 -6 4 -7 vhcurveto
        endchar
      </CharString>
      <CharString index="15">
        -88 callsubr
        -32 -37 -103 -164 0 -29 hvcurveto
        -71 hlineto
        93 13 45 79 116 hhcurveto
        return
      </CharString>
      <CharString index="16">
        1 callsubr
        hintmask 11101010
        -101 callgsubr
        hintmask 00010100
        return
      </CharString>
      <CharString index="17">
        hintmask 00000000
        hintmask 11001000
        -94 callgsubr
        return
      </CharString>
      <CharString index="18">
        vvcurveto
        -102 callsubr
        return
      </CharString>
      <CharString index="19">
        -95 callgsubr
        endchar
      </CharString>
      <CharString index="20">
        15 -10 7 -28 -41 callgsubr
        -26 return
      </CharString>
      <CharString index="21">
        523 rmoveto
        9 91 rlineto
        60 6 -22 callgsubr
        14 37 11 30 -54 1 -17 -53 -79 -16 -116 -11 hvcurveto
        -10 -101 rlineto
        -40 -72 callsubr
        40 hlineto
        -45 -431 rlineto
        -15 10 -7 28 3 callsubr
        7 15 2 hvcurveto
        45 431 rlineto
        66 hlineto
        -47 callgsubr
        return
      </CharString>
      <CharString index="22">
        92 -19 callsubr
        -100 callsubr
        hintmask 00101000
        return
      </CharString>
      <CharString index="23">
        rmoveto
        -48 callgsubr
        17 hlineto
        28 12 -65 callgsubr
        return
      </CharString>
      <CharString index="24">
        14 -9 -68 callgsubr
        return
      </CharString>
      <CharString index="25">
        -20 -8 -13 -26 -39 -35 20 -54 hhcurveto
        -53 -54 -31 -25 -11 13 -19 16 hvcurveto
        20 7 13 27 hhcurveto
        return
      </CharString>
      <CharString index="26">
        62 20 rmoveto
        -78 callsubr
        -28 -13 -8 -14 -1 hvcurveto
        return
      </CharString>
      <CharString index="27">
        87 -19 callsubr
        -98 callsubr
        hintmask 00101000
        return
      </CharString>
      <CharString index="28">
        rmoveto
        -8 6 7 -5 8 hhcurveto
        19 19 25 11 5 -2 5 -4 6 hvcurveto
        -95 145 126 144 rlineto
        5 8 5 8 6 vvcurveto
        16 -21 14 -11 -8 -7 -4 -8 -8 vhcurveto
        -147 -156 rlineto
        -12 -13 -3 -8 -10 vvcurveto
        -8 3 -7 7 -10 vhcurveto
        return
      </CharString>
      <CharString index="29">
        -8 -14 -1 hvcurveto
        return
      </CharString>
      <CharString index="30">
        -31 callgsubr
        -81 callgsubr
        return
      </CharString>
      <CharString index="31">
        27 40 370 0 vhcurveto
        -74 callsubr
        return
      </CharString>
      <CharString index="32">
        hintmask 00000000
        58 14 -52 callgsubr
        -56 callsubr
        -413 -378 -29 callgsubr
        hintmask 11111000
        -59 callsubr
        return
      </CharString>
      <CharString index="33">
        rmoveto
        28 263 rlineto
        8 -3 5 -13 vhcurveto
        -9 hlineto
        -8 -8 -3 -5 -4 hvcurveto
        -219 -274 rlineto
        -1 -2 -1 -3 -5 vvcurveto
        -11 5 -14 6 vhcurveto
        175 hlineto
        -8 -76 rlineto
        -9 4 -4 13 vhcurveto
        13 hlineto
        10 7 5 8 1 hvcurveto
        8 76 rlineto
        38 hlineto
        14 1 19 6 10 -2 6 -8 hvcurveto
        -219 hmoveto
        150 193 3 -1 -21 -192 rlineto
        endchar
      </CharString>
      <CharString index="34">
        rmoveto
        50 43 42 51 43 -32 33 -44 -49 -44 -42 -51 -43 31 -33 45 hvcurveto
        3 35 rmoveto
        -27 -17 19 26 30 26 24 29 26 18 -19 -25 -31 -24 -24 -31 hvcurveto
        endchar
      </CharString>
      <CharString index="35">
        108 -65 24 -57 -67 -89 -34 -162 -106 65 -23 57 112 44 92 101 vhcurveto
        return
      </CharString>
      <CharString index="36">
        299 630 rmoveto
        79 33 -38 15 hhcurveto
        10 28 41 13 36 -99 24 -56 -144 -98 -84 -124 hvcurveto
        -200 292 56 -150 vvcurveto
        -81 -66 -53 -79 vhcurveto
        -101 -51 51 -10 hhcurveto
        -7 -9 -10 -55 -48 124 -14 46 143 101 85 139 hvcurveto
        211 -293 -49 128 vvcurveto
        83 67 39 75 vhcurveto
        return
      </CharString>
      <CharString index="37">
        rmoveto
        155 171 rlineto
        34 37 13 29 42 vvcurveto
        51 -43 35 -70 -36 -72 -18 -25 -9 9 -19 6 vhcurveto
        10 27 29 53 hhcurveto
        41 25 -20 -32 -23 -12 -28 -27 -30 hvcurveto
        -178 -197 rlineto
        -1 -1 0 -2 -2 vvcurveto
        -10 6 -20 6 vhcurveto
        215 hlineto
        14 1 20 6 9 -2 7 -8 hvcurveto
        endchar
      </CharString>
      <CharString index="38">
        rmoveto
        -199 160 -160 199 199 161 160 199 199 -161 157 -199 -199 -160 -157 -199 vhcurveto
        48 hmoveto
        172 140 136 171 172 140 -136 -172 -171 -140 -140 -172 -171 -140 140 171 vhcurveto
        return
      </CharString>
      <CharString index="39">
        8 -29 vhcurveto
        return
      </CharString>
      <CharString index="40">
        rmoveto
        15 -6 9 -15 7 vhcurveto
        -393 174 rlineto
        2 -4 -5 1 -5 hhcurveto
        -15 -10 -14 -26 -19 7 -10 13 -6 hvcurveto
        340 -146 -371 -145 rlineto
        -17 -6 -12 -10 -33 vvcurveto
        -17 5 -9 13 5 5 1 2 6 vhcurveto
        429 174 rlineto
        16 7 14 11 38 vvcurveto
        return
      </CharString>
      <CharString index="41">
        513 hmoveto
        -92 callsubr
        -392 hlineto
        468 559 rlineto
        4 4 1 6 7 vvcurveto
        21 -11 27 -6 vhcurveto
        -459 hlineto
        -36 callsubr
        361 hlineto
        -468 -559 rlineto
        -4 -4 -1 -7 -6 vvcurveto
        -20 10 -28 9 vhcurveto
        return
      </CharString>
      <CharString index="42">
        8 14 2 hvcurveto
        7 66 rlineto
        -83 callgsubr
        -17 hlineto
        return
      </CharString>
      <CharString index="43">
        -60 callsubr
        30 vhcurveto
        return
      </CharString>
      <CharString index="44">
        rmoveto
        30 64 593 0 vhcurveto
        -96 callgsubr
        -3 -65 -590 -45 -89 callgsubr
        endchar
      </CharString>
      <CharString index="45">
        hlineto
        -71 callsubr
        return
      </CharString>
      <CharString index="46">
        rmoveto
        -9 8 -3 14 13 9 4 8 2 vhcurveto
        41 182 2 14 rlineto
        21 -23 1 -14 vhcurveto
        -10 15 callsubr
        hvcurveto
        return
      </CharString>
      <CharString index="47">
        vvcurveto
        72 -19 3 -7 -7 -49 -1 -22 vhcurveto
        -6 1 -4 -24 vvcurveto
        return
      </CharString>
      <CharString index="48">
        -322 -116 224 hstem
        1 151 vstem
        106 108 rmoveto
        -88 callgsubr
      </CharString>
      <CharString index="49">
        -21 -10 -9 -21 -2 hvcurveto
        return
      </CharString>
      <CharString index="50">
        -62 callgsubr
        endchar
      </CharString>
      <CharString index="51">
        rlineto
        158 hlineto
        -20 callgsubr
        18 178 16 callgsubr
        -30 -14 -8 -14 -1 vhcurveto
        -18 -178 -24 callgsubr
        return
      </CharString>
      <CharString index="52">
        93 19 -21 180 76 448 -20 return
      </CharString>
      <CharString index="53">
        hlineto
        -28 -13 -78 callgsubr
        return
      </CharString>
      <CharString index="54">
        11 -2 1 -4 vhcurveto
        -10 -43 -31 -81 hhcurveto
        -94 -42 44 100 181 74 66 93 hvcurveto
        80 23 -30 8 hhcurveto
        17 22 37 13 21 -49 31 -91 -192 -72 -153 -172 return
      </CharString>
      <CharString index="55">
        rmoveto
        -4 -4 -1 -4 -2 vvcurveto
        -4 4 -2 9 vhcurveto
        13 hlineto
        13 11 4 12 8 hvcurveto
        return
      </CharString>
      <CharString index="56">
        rlineto
        -84 callsubr
        return
      </CharString>
      <CharString index="57">
        25 -6 73 389 73 -4 -20 return
      </CharString>
      <CharString index="58">
        66 rmoveto
        -88 -58 33 111 hvcurveto
        return
      </CharString>
      <CharString index="59">
        -14 9 -8 29 vhcurveto
        return
      </CharString>
      <CharString index="60">
        38 7 49 4 14 -4 5 -12 hvcurveto
        return
      </CharString>
      <CharString index="61">
        -45 callgsubr
        hintmask 10101000
        -32 callsubr
        return
      </CharString>
      <CharString index="62">
        52 43 -26 76 hhcurveto
        65 62 30 23 20 -16 12 -13 hvcurveto
        -13 -23 -11 -26 hhcurveto
        return
      </CharString>
      <CharString index="63">
        -48 callgsubr
        4 hlineto
        28 -10 callsubr
        return
      </CharString>
      <CharString index="64">
        5 7 5 7 5 vvcurveto
        11 -13 5 -32 return
      </CharString>
      <CharString index="65">
        -133 -186 -174 return
      </CharString>
      <CharString index="66">
        vhcurveto
        -4 hlineto
        return
      </CharString>
      <CharString index="67">
        37 13 31 32 49 vvcurveto
        58 -43 29 -63 -36 -71 -14 -17 -9 10 -20 6 vhcurveto
        10 23 19 52 hhcurveto
        51 12 -28 -22 -26 -21 -55 -64 hvcurveto
        return
      </CharString>
      <CharString index="68">
        -50 -11 35 38 -27 callgsubr
        -61 -17 -78 -70 hvcurveto
        return
      </CharString>
      <CharString index="69">
        211 -34 callsubr
        return
      </CharString>
      <CharString index="70">
        -6 72 391 72 return
      </CharString>
      <CharString index="71">
        -66 -84 callgsubr
        -28 -13 -8 -14 -1 hvcurveto
        return
      </CharString>
      <CharString index="72">
        26 0 -38 callsubr
        return
      </CharString>
      <CharString index="73">
        64 hlineto
        -47 callgsubr
        -85 hlineto
        11 105 rlineto
        -87 callgsubr
        -13 -62 callsubr
        return
      </CharString>
      <CharString index="74">
        -12 -78 callgsubr
        return
      </CharString>
      <CharString index="75">
        hlineto
        21 9 10 20 3 hvcurveto
        2 13 -13 callgsubr
        return
      </CharString>
      <CharString index="76">
        hintmask 00000000
        hintmask 11010000
        return
      </CharString>
      <CharString index="77">
        -255 -6 72 459 -20 return
      </CharString>
      <CharString index="78">
        rmoveto
        -7 5 -5 16 -18 callgsubr
        15 7 4 8 1 hvcurveto
        return
      </CharString>
      <CharString index="79">
        hlineto
        24 1 32 11 16 -3 8 -14 hvcurveto
        return
      </CharString>
      <CharString index="80">
        42 4 101 80 53 11 -38 -39 return
      </CharString>
      <CharString index="81">
        rmoveto
        54 47 34 22 hvcurveto
        return
      </CharString>
      <CharString index="82">
        -17 8 -7 19 vhcurveto
        return
      </CharString>
      <CharString index="83">
        rlineto
        -158 hlineto
        -24 -1 -38 -12 -18 3 -12 14 hvcurveto
        return
      </CharString>
      <CharString index="84">
        -24 -1 -27 -11 -16 3 -13 14 hvcurveto
        return
      </CharString>
      <CharString index="85">
        23 10 31 30 11 -7 4 hhcurveto
        12 return
      </CharString>
      <CharString index="86">
        hlineto
        -74 -710 rlineto
        -60 callsubr
        29 vhcurveto
        6 hlineto
        25 16 8 14 2 hvcurveto
        74 710 rlineto
        return
      </CharString>
      <CharString index="87">
        24 1 38 12 18 -3 12 -14 hvcurveto
        -157 hlineto
        return
      </CharString>
      <CharString index="88">
        -12 11 -9 27 -18 callgsubr
        return
      </CharString>
      <CharString index="89">
        vhcurveto
        4 hlineto
        return
      </CharString>
      <CharString index="90">
        96 51 -4 callgsubr
        -86 34 -97 -282 -87 -205 -227 return
      </CharString>
      <CharString index="91">
        vhcurveto
        50 31 -24 6 hhcurveto
        16 20 37 11 36 return
      </CharString>
      <CharString index="92">
        rmoveto
        -11 6 8 -5 10 13 23 11 26 hhcurveto
        return
      </CharString>
      <CharString index="93">
        4 -3 5 hhcurveto
        4 5 3 5 5 hvcurveto
        return
      </CharString>
      <CharString index="94">
        rlineto
        20 -6 10 -21 vhcurveto
        return
      </CharString>
      <CharString index="95">
        73 -53 73 -7 -20 hstemhm
        return
      </CharString>
      <CharString index="96">
        rlineto
        13 7 10 9 20 vvcurveto
        9 -2 5 -5 -3 -4 -2 -2 -4 vhcurveto
        return
      </CharString>
      <CharString index="97">
        -6 72 -47 -21 458 73 return
      </CharString>
      <CharString index="98">
        4 -20 hhcurveto
        return
      </CharString>
      <CharString index="99">
        -55 callgsubr
        103 147 2 callgsubr
        return
      </CharString>
      <CharString index="100">
        19 -39 callsubr
        76 -18 callsubr
        46 87 return
      </CharString>
      <CharString index="101">
        hlineto
        -20 -10 -10 -20 -3 hvcurveto
        endchar
      </CharString>
      <CharString index="102">
        -4 hhcurveto
        -5 -4 -2 -5 -5 hvcurveto
        return
      </CharString>
      <CharString index="103">
        -44 11 hhcurveto
        13 27 43 16 27 return
      </CharString>
      <CharString index="104">
        20 -2 10 -15 hvcurveto
        return
      </CharString>
      <CharString index="105">
        hhcurveto
        51 25 -26 -51 return
      </CharString>
      <CharString index="106">
        rlineto
        5 5 3 4 5 vvcurveto
        4 -1 5 -4 5 vhcurveto
        return
      </CharString>
      <CharString index="107">
        -20 callsubr
        103 -18 callsubr
        64 89 return
      </CharString>
      <CharString index="108">
        -39 -187 -21 733 -20 return
      </CharString>
      <CharString index="109">
        hstemhm
        -23 588 return
      </CharString>
      <CharString index="110">
        19 -21 527 -20 return
      </CharString>
      <CharString index="111">
        -187 -21 202 return
      </CharString>
      <CharString index="112">
        hlineto
        38 7 46 3 13 -4 5 -12 hvcurveto
        return
      </CharString>
      <CharString index="113">
        hlineto
        -14 -11 -9 -38 -21 2 -9 15 hvcurveto
        return
      </CharString>
      <CharString index="114">
        -7 -10 -9 -20 vvcurveto
        -9 2 -5 5 2 return
      </CharString>
      <CharString index="115">
        20 11 11 19 2 hvcurveto
        return
      </CharString>
      <CharString index="116">
        4 20 1 23 2 vvcurveto
        return
      </CharString>
      <CharString index="117">
        vvcurveto
        -25 callgsubr
        return
      </CharString>
      <CharString index="118">
        -22 -1 -32 -10 -15 3 -10 13 hvcurveto
        return
      </CharString>
      <CharString index="119">
        rlineto
        12 -2 -17 -9 callgsubr
        -9 hlineto
        return
      </CharString>
      <CharString index="120">
        hvcurveto
        -7 -66 return
      </CharString>
      <CharString index="121">
        rlineto
        14 -5 8 -17 vhcurveto
        -10 hlineto
        return
      </CharString>
      <CharString index="122">
        85 -57 86 hintmask 00000000
        return
      </CharString>
      <CharString index="123">
        rlineto
        14 -8 8 -29 return
      </CharString>
      <CharString index="124">
        -6 72 568 72 return
      </CharString>
      <CharString index="125">
        -19 6 -11 21 vhcurveto
        return
      </CharString>
      <CharString index="126">
        87 269 87 vstem
        return
      </CharString>
      <CharString index="127">
        14 -4 6 -14 return
      </CharString>
      <CharString index="128">
        700 rmoveto
        return
      </CharString>
</ttFont>
